<?xml version="1.0" standalone="no"?>
<!DOCTYPE svg PUBLIC "-//W3C//DTD SVG 20010904//EN"
 "http://www.w3.org/TR/2001/REC-SVG-20010904/DTD/svg10.dtd">
<svg version="1.0" xmlns="http://www.w3.org/2000/svg"
 width="27.000000pt" height="27.000000pt" viewBox="0 0 367.000000 367.000000"
 preserveAspectRatio="xMidYMid meet">

<g transform="translate(0.000000,367.000000) scale(0.100000,-0.100000)"
fill="#000000" stroke="none">
<path d="M0 3630 c0 -36 9 -51 76 -130 42 -49 81 -91 87 -94 7 -2 5 -5 -4 -5
-9 -1 -49 32 -87 72 l-71 72 -1 -272 c0 -250 1 -272 18 -276 16 -4 16 -5 0 -6
-12 -1 -18 -9 -18 -26 0 -21 5 -25 30 -25 18 0 30 -5 30 -13 0 -9 -10 -12 -30
-9 -18 3 -30 0 -30 -7 0 -7 29 -11 85 -11 50 0 85 -4 85 -10 0 -6 -35 -10 -85
-10 -78 0 -85 -2 -85 -20 0 -17 8 -20 68 -23 l67 -3 -67 -2 -68 -2 0 -234 0
-235 28 -4 27 -4 -27 -2 c-36 -1 -36 -18 0 -24 l27 -4 -27 -2 c-29 -1 -41 -31
-13 -31 8 0 15 -7 15 -16 0 -10 -6 -14 -15 -10 -13 5 -15 -13 -15 -119 0 -120
1 -124 23 -128 l22 -4 -22 -2 c-18 -1 -23 -7 -23 -27 0 -26 1 -26 48 -21 99
13 577 19 602 9 18 -8 -53 -11 -260 -11 -334 -1 -390 -6 -390 -32 0 -13 9 -19
33 -22 l32 -4 -32 -1 c-26 -2 -33 -6 -33 -23 0 -20 4 -21 100 -17 76 2 103 7
110 18 9 13 11 13 19 1 7 -11 43 -13 198 -10 103 3 172 3 153 0 l-35 -5 40 -6
c22 -4 -101 -8 -272 -9 l-313 -1 0 -34 c0 -30 4 -35 28 -39 l27 -4 -27 -2
c-23 -1 -28 -6 -28 -26 0 -22 4 -24 57 -28 l58 -3 -57 -2 -58 -2 0 -154 0
-155 27 -4 28 -4 -27 -2 -28 -1 0 -79 c0 -67 3 -80 18 -84 16 -4 16 -5 0 -6
-17 -1 -18 -21 -18 -271 l0 -270 85 0 c50 0 85 -4 85 -10 0 -6 -35 -10 -85
-10 -50 0 -85 -4 -85 -10 0 -6 35 -10 85 -10 50 0 85 -4 85 -10 0 -6 -35 -10
-85 -10 -50 0 -85 -4 -85 -10 0 -6 37 -10 90 -10 l90 0 0 60 c0 43 4 60 13 60
8 0 25 17 38 37 17 26 37 41 69 51 25 9 50 20 55 27 10 11 65 38 65 31 0 -2
-31 -26 -68 -54 -149 -111 -201 -181 -134 -183 l27 -1 -26 -11 c-26 -12 -27
-13 -28 -132 -1 -66 -4 -121 -7 -124 -2 -2 -4 33 -4 79 l0 83 -37 -7 c-21 -3
-62 -6 -90 -6 l-53 0 0 -202 0 -203 51 52 c28 29 53 53 57 53 3 0 -20 -26 -52
-59 -49 -50 -57 -63 -54 -90 3 -31 6 -29 202 166 137 136 207 198 222 198 13
1 20 -3 17 -7 -2 -5 -13 -6 -22 -3 -13 4 -31 -9 -61 -42 -24 -27 -112 -118
-196 -204 -85 -86 -154 -159 -154 -162 0 -4 15 -7 33 -7 28 0 48 15 151 119
l118 118 508 1 c491 1 509 0 526 -19 9 -10 22 -19 29 -19 13 0 198 195 231
244 12 17 34 59 49 94 32 70 44 77 21 11 -9 -24 -16 -51 -16 -61 0 -25 -108
-164 -189 -243 l-71 -69 0 -88 0 -88 130 0 c80 0 130 4 130 10 0 6 -6 10 -12
10 -10 0 -10 2 -1 8 7 4 12 19 11 32 -3 55 2 343 7 339 2 -3 5 -94 6 -202 2
-157 5 -197 16 -197 10 0 13 43 13 222 0 212 1 227 25 299 14 42 31 103 38
137 l12 60 92 -44 c70 -33 96 -52 108 -75 16 -30 16 -31 -22 -76 -98 -117 -88
-82 -92 -315 l-3 -208 60 0 c49 0 61 3 65 18 4 16 5 16 6 0 1 -11 9 -18 21
-18 18 0 20 8 23 122 l3 123 2 -122 2 -123 150 0 c173 0 158 -12 163 125 3 75
3 74 5 -22 l2 -103 85 0 85 0 0 85 c0 50 4 85 10 85 6 0 10 -35 10 -85 l0 -85
85 0 84 0 3 102 c2 56 7 103 13 105 6 2 9 -35 7 -102 -4 -101 -3 -105 17 -105
12 0 21 1 21 3 1 1 3 45 7 97 7 112 13 130 13 38 0 -44 4 -68 13 -71 10 -4 10
-6 0 -6 -8 -1 -13 -14 -13 -31 0 -28 3 -30 35 -30 l35 0 0 99 c0 86 -2 100
-17 104 -14 4 -12 5 5 6 21 1 22 -3 22 -75 0 -47 4 -73 10 -69 6 3 10 -1 10
-9 0 -8 -5 -18 -10 -21 -6 -3 -10 -13 -10 -21 0 -10 14 -14 54 -14 44 0 55 4
59 17 4 17 5 17 6 1 1 -15 12 -18 76 -18 l74 0 4 98 3 97 2 -97 2 -98 29 0
c28 0 30 3 34 43 l4 42 1 -43 2 -43 196 2 195 2 -52 53 c-29 29 -56 51 -61 48
-5 -3 -7 0 -6 8 2 7 -2 12 -9 11 -6 -1 -17 5 -25 14 -9 12 -9 15 0 9 17 -10
15 4 -5 28 -18 21 -18 21 5 2 12 -11 22 -15 22 -10 0 5 41 -32 90 -81 l90 -90
0 49 c0 33 -6 57 -17 70 -17 20 -17 20 0 7 16 -13 17 0 17 238 l0 251 -72 2
c-40 0 -79 1 -85 1 -7 -1 -13 5 -13 13 0 11 19 14 85 14 50 0 85 4 85 10 0 6
-35 10 -85 10 -50 0 -85 4 -85 10 0 6 35 10 85 10 50 0 85 4 85 10 0 6 -35 10
-85 10 -68 0 -85 3 -85 15 0 11 18 15 82 17 54 2 83 7 86 16 3 9 -18 12 -82
12 -54 0 -86 4 -86 11 0 6 30 9 80 8 44 -1 83 1 87 5 3 3 -33 6 -80 6 -71 0
-87 3 -87 15 0 12 16 15 87 15 57 0 84 3 77 10 -6 6 -42 7 -92 3 l-82 -6 -1
-56 c-1 -31 0 -125 1 -208 1 -109 -1 -153 -10 -153 -8 0 -10 67 -8 250 3 207
2 250 -10 245 -7 -2 -11 -1 -8 4 6 10 -24 25 -32 16 -3 -3 1 -5 8 -5 7 0 11
-3 7 -6 -8 -9 -148 87 -141 97 6 10 129 -47 158 -73 11 -10 21 -17 22 -15 1 1
4 165 6 364 1 200 6 363 9 363 7 0 20 -154 21 -230 0 -199 -2 -240 -13 -259
-10 -15 -10 -25 0 -47 8 -19 9 -30 1 -38 -15 -15 -12 -56 4 -56 8 0 18 5 21
10 9 15 25 12 25 -5 0 -10 -10 -15 -27 -15 l-28 0 -2 -86 -3 -86 83 7 c45 4
85 9 89 12 4 2 7 38 7 78 -1 74 -1 75 -27 76 l-27 1 28 10 c19 7 27 17 27 34
0 22 -4 24 -57 26 -37 1 -45 3 -23 5 84 8 80 3 80 107 0 66 -4 96 -12 99 -10
4 -10 6 0 6 9 1 12 43 12 175 l0 175 -47 4 -48 3 48 2 47 2 0 46 0 46 -60 -4
c-33 -2 -60 -1 -60 4 0 4 26 8 58 8 l58 0 2 70 2 70 -142 0 c-78 0 -139 2
-137 4 6 6 135 15 212 16 53 0 67 3 67 15 0 10 -11 15 -37 16 -21 1 -83 5
-138 9 -97 8 -96 8 40 5 78 -1 122 1 100 5 l-40 7 37 2 37 1 0 54 c-1 42 -5
56 -18 59 -14 4 -14 5 1 6 15 1 17 29 18 337 l0 336 -52 -3 c-75 -3 -98 -1
-98 12 0 5 5 7 10 4 6 -4 40 -3 75 0 l65 7 0 44 0 44 -96 0 c-85 0 -95 -2 -93
-17 1 -10 -3 -31 -10 -48 -11 -27 -13 -28 -23 -12 -7 14 -6 23 7 36 18 21 33
91 19 91 -12 0 -44 -37 -38 -44 2 -3 1 -4 -2 -1 -4 2 -15 -6 -24 -18 -25 -31
-80 -62 -80 -45 0 8 25 31 55 53 30 22 55 43 55 48 0 12 -6 9 -56 -33 -60 -49
-84 -52 -29 -4 44 39 102 74 90 54 -5 -8 -3 -11 6 -8 10 3 15 25 16 74 2 38 4
95 6 126 3 56 3 56 -18 40 -84 -68 -104 -86 -100 -91 2 -4 0 -13 -6 -21 -5
-10 -9 -11 -9 -3 0 7 -11 2 -24 -10 -13 -12 -42 -35 -64 -51 -23 -16 -39 -33
-36 -38 3 -4 -3 -8 -13 -8 -20 0 -72 -40 -153 -117 -58 -55 -70 -62 -70 -39 0
7 18 26 40 41 22 15 40 31 40 36 0 4 13 14 28 22 23 11 171 131 364 295 19 16
58 8 41 -9 -5 -5 -8 -23 -5 -39 l4 -30 89 0 89 0 0 226 -1 226 -21 -18 c-11
-11 -50 -54 -86 -97 -39 -46 -68 -73 -72 -66 -4 6 21 40 55 77 108 117 125
139 125 166 0 14 -3 26 -7 25 -5 -1 -37 -34 -73 -74 -36 -40 -69 -73 -73 -74
-5 -1 26 36 68 82 l77 82 -37 3 c-20 2 -44 -3 -53 -10 -12 -10 -14 -10 -8 0 5
9 -8 12 -53 12 l-61 0 0 -51 c0 -45 -15 -79 -34 -79 -3 0 -6 30 -6 67 l0 66
-25 -23 c-25 -23 -37 -16 -13 8 9 9 8 12 -5 12 -14 0 -17 -12 -19 -72 l-2 -73
-6 75 -6 75 -1 -95 c-1 -56 2 -87 6 -75 l8 20 5 -20 c5 -16 6 -17 7 -2 0 9 8
17 16 17 43 0 -13 -42 -60 -46 -16 -1 -22 0 -12 3 15 4 17 13 13 56 -2 29 -5
71 -5 95 -1 43 -1 43 -33 40 -32 -3 -33 -4 -39 -63 l-6 -60 -1 63 c-2 59 -3
62 -26 62 -21 0 -25 -5 -29 -37 l-4 -38 -1 38 c-2 35 -4 37 -37 37 -28 0 -35
-4 -35 -20 0 -28 -20 -25 -21 3 -1 21 -1 21 -8 -3 l-8 -25 -5 25 c-3 14 -6
-19 -7 -72 0 -58 -5 -98 -11 -98 -6 0 -10 38 -10 94 l0 94 -62 -1 -63 -2 -10
-85 -10 -85 -3 88 -3 87 -29 0 -30 0 0 -100 c0 -60 -4 -100 -10 -100 -6 0 -10
40 -10 100 0 133 -18 130 -23 -2 l-3 -103 -2 103 c-2 96 -3 102 -23 102 -19 0
-20 -5 -17 -69 2 -38 0 -67 -4 -64 -5 2 -8 32 -8 67 l0 62 -52 3 c-33 1 -54
-2 -59 -11 -7 -10 -9 -10 -9 0 0 9 -36 12 -144 12 l-145 0 -4 -42 -4 -43 -1
43 -2 42 -55 0 -55 0 0 -35 c0 -19 -5 -35 -11 -35 -5 0 -9 8 -8 18 5 51 6 50
-106 50 l-105 -1 0 -64 c0 -35 -4 -63 -10 -63 -5 0 -10 19 -10 43 0 73 -8 87
-46 87 l-34 0 0 -210 c0 -184 -2 -210 -16 -210 -9 0 -12 -5 -8 -12 5 -7 3 -8
-6 -3 -10 6 -11 52 -6 221 l7 214 -26 0 c-18 0 -24 -4 -19 -12 6 -10 4 -10 -7
-2 -8 6 -22 11 -31 11 -16 0 -18 -14 -18 -138 0 -136 -3 -149 -37 -149 -2 0
-4 60 -3 133 2 161 2 157 -9 157 -5 0 -9 -15 -8 -32 1 -73 -3 -109 -13 -103
-6 3 -10 35 -10 71 l0 64 -29 0 c-27 0 -30 -4 -34 -37 l-4 -38 -1 38 -2 37
-149 0 c-134 0 -150 -2 -154 -17 -4 -17 -5 -17 -6 0 -1 15 -11 17 -86 15 l-86
-3 2 -68 c1 -37 -1 -70 -5 -74 -3 -3 -6 28 -6 70 l0 77 -74 0 c-74 0 -75 0
-79 -27 l-4 -28 -2 28 c0 17 -6 27 -13 25 -8 -3 -11 -23 -9 -56 1 -32 -2 -52
-8 -52 -7 0 -11 22 -11 55 l0 55 -165 0 -164 0 -4 -87 -3 -88 -2 88 c-2 98
-15 117 -20 29 -5 -92 5 -140 31 -145 12 -2 -9 -6 -48 -7 l-70 -3 65 -7 c52
-5 36 -7 -74 -8 l-140 -2 34 -35 c19 -19 41 -37 50 -40 9 -3 23 -18 31 -33 8
-15 41 -57 73 -94 80 -91 118 -153 44 -73 -61 67 -150 175 -144 175 2 0 -23
26 -56 58 l-59 57 68 -1 c48 -1 53 0 17 3 -47 4 -55 8 -110 66 -42 44 -46 50
-14 22 24 -22 49 -46 56 -54 6 -8 18 -11 28 -8 9 4 16 3 16 -1 0 -4 44 -8 98
-7 71 0 97 3 96 13 -1 6 -2 50 -2 97 l-2 85 -70 0 -70 0 -1 -57 c-1 -32 -1
-61 0 -65 0 -5 -3 -8 -8 -8 -14 0 -21 27 -21 81 0 45 -2 49 -24 49 -18 0 -26
-7 -29 -22 l-4 -23 -2 23 c-1 15 -7 22 -21 22 -16 0 -20 -7 -20 -32 0 -45 -10
-79 -21 -72 -5 3 -9 27 -9 53 0 45 -2 49 -25 49 -14 0 -26 -7 -28 -17 -4 -14
-5 -14 -6 2 -1 10 -9 17 -22 17 -13 0 -18 -4 -13 -12 6 -10 4 -10 -7 0 -7 6
-37 12 -66 12 l-53 0 0 -40z m1047 -117 c-2 -27 -3 -5 -3 47 0 52 1 74 3 48 2
-27 2 -69 0 -95z m850 85 c-2 -13 -4 -5 -4 17 -1 22 1 32 4 23 2 -10 2 -28 0
-40z m135 -160 c-4 -284 -9 -295 -11 -25 0 125 2 227 7 227 4 0 6 -91 4 -202z
m105 180 c-3 -8 -6 -5 -6 6 -1 11 2 17 5 13 3 -3 4 -12 1 -19z m570 -90 c-2
-24 -4 -7 -4 37 0 44 2 63 4 43 2 -21 2 -57 0 -80z m693 62 c0 -27 -2 -50 -4
-50 -2 0 -11 -3 -20 -6 -13 -5 -16 1 -16 31 0 39 15 75 30 75 6 0 10 -22 10
-50z m-1617 -23 c3 -34 2 -55 -4 -52 -5 4 -9 31 -9 62 0 70 5 66 13 -10z
m1354 31 c-3 -7 -5 -2 -5 12 0 14 2 19 5 13 2 -7 2 -19 0 -25z m-1140 -25 c-3
-10 -5 -2 -5 17 0 19 2 27 5 18 2 -10 2 -26 0 -35z m1105 23 c3 -15 0 -27 -8
-30 -10 -4 -14 3 -14 24 0 36 16 40 22 6z m-2981 -12 c23 -25 23 -26 2 -13
-13 7 -25 19 -27 26 -8 19 -2 16 25 -13z m1959 16 c0 -5 -5 -10 -11 -10 -5 0
-7 5 -4 10 3 6 8 10 11 10 2 0 4 -4 4 -10z m1177 -27 c-3 -10 -5 -4 -5 12 0
17 2 24 5 18 2 -7 2 -21 0 -30z m263 29 c0 -11 -125 -132 -136 -132 -9 0 118
137 129 139 4 0 7 -3 7 -7z m-660 -17 c0 -8 -4 -15 -10 -15 -5 0 -7 7 -4 15 4
8 8 15 10 15 2 0 4 -7 4 -15z m207 -17 c-3 -8 -6 -5 -6 6 -1 11 2 17 5 13 3
-3 4 -12 1 -19z m-667 2 c0 -5 -4 -10 -9 -10 -6 0 -13 5 -16 10 -3 6 1 10 9
10 9 0 16 -4 16 -10z m-318 -55 c-5 -71 -22 -71 -22 0 0 37 4 55 13 55 8 0 11
-16 9 -55z m-484 -68 c11 -12 22 -33 25 -47 2 -14 5 -4 6 25 2 28 5 44 8 38 7
-18 21 -16 26 5 3 9 5 -30 5 -88 1 -102 0 -104 -16 -80 -9 14 -45 63 -80 109
-35 46 -64 89 -65 94 -1 6 -13 22 -27 35 -14 13 3 3 36 -22 34 -26 70 -57 82
-69z m1320 77 c0 -19 3 -38 6 -41 3 -4 6 9 6 27 0 39 7 36 20 -9 8 -30 7 -31
-21 -31 -28 0 -29 2 -29 45 0 25 4 45 9 45 5 0 9 -16 9 -36z m-2733 -12 c-6
-7 -35 18 -35 31 0 5 9 2 20 -8 11 -10 18 -20 15 -23z m715 -7 l0 -34 68 -4
67 -4 -75 1 -75 1 -3 38 c-2 21 1 37 7 37 6 0 11 -16 11 -35z m358 -28 c33 -2
26 -4 -23 -4 -38 0 -62 1 -52 4 12 3 16 11 12 24 -4 10 -3 24 2 31 5 9 9 2 11
-19 3 -30 6 -32 50 -36z m650 -297 c0 -67 -3 -98 -8 -85 -5 11 -8 117 -8 235
1 207 2 210 9 85 3 -71 7 -177 7 -235z m479 338 c-3 -8 -6 -5 -6 6 -1 11 2 17
5 13 3 -3 4 -12 1 -19z m1123 18 c0 -2 -8 -10 -17 -17 -16 -13 -17 -12 -4 4
13 16 21 21 21 13z m-3375 -26 c10 -11 16 -20 13 -20 -3 0 -13 9 -23 20 -10
11 -16 20 -13 20 3 0 13 -9 23 -20z m106 -7 c13 -16 12 -17 -3 -4 -10 7 -18
15 -18 17 0 8 8 3 21 -13z m1719 -267 c0 -143 -2 -258 -4 -255 -8 7 -15 156
-16 324 -1 217 -1 222 9 206 5 -8 10 -132 11 -275z m1300 259 c0 -16 -6 -25
-15 -25 -8 0 -15 5 -15 11 0 5 5 7 10 4 6 -3 10 3 10 14 0 12 2 21 5 21 3 0 5
-11 5 -25z m-1706 -128 c30 -34 71 -93 92 -132 21 -38 41 -72 45 -75 8 -6 49
-190 49 -220 0 -13 -7 -20 -20 -20 -22 0 -24 7 -40 114 -11 73 -55 186 -92
239 -12 18 -60 79 -107 137 -83 102 -84 104 -33 62 28 -24 76 -71 106 -105z
m235 21 c0 -73 -3 -106 -9 -93 -12 29 -12 205 0 205 6 0 10 -44 9 -112z m208
90 c-3 -8 -6 -5 -6 6 -1 11 2 17 5 13 3 -3 4 -12 1 -19z m390 0 c-3 -8 -6 -5
-6 6 -1 11 2 17 5 13 3 -3 4 -12 1 -19z m-1573 -8 c34 0 66 -4 72 -9 5 -5 23
-12 39 -14 34 -5 -115 0 -219 8 -85 6 -99 15 -23 15 39 0 57 4 58 13 0 10 2
10 6 0 3 -9 26 -13 67 -13z m796 5 c21 -25 6 -33 -18 -8 -16 16 -18 23 -9 23
8 0 20 -7 27 -15z m1005 5 c3 -5 1 -10 -4 -10 -6 0 -11 5 -11 10 0 6 2 10 4
10 3 0 8 -4 11 -10z m890 0 c-3 -5 -20 -19 -38 -30 l-32 -22 33 31 c32 30 49
40 37 21z m-2395 -13 c0 -5 -7 -6 -16 -3 -12 4 -15 2 -10 -9 3 -8 1 -15 -4
-15 -10 0 -14 23 -5 32 9 8 35 5 35 -5z m50 9 c0 -2 -7 -6 -15 -10 -8 -3 -15
-1 -15 4 0 6 7 10 15 10 8 0 15 -2 15 -4z m272 -54 c133 -147 209 -287 231
-425 l13 -86 -24 -6 c-13 -3 -27 -4 -30 0 -3 3 2 5 11 5 20 0 20 9 6 103 -6
40 -23 94 -36 122 -35 67 -156 241 -204 290 -21 23 -39 44 -39 48 0 14 37 -12
72 -51z m1138 46 c0 -4 -7 -8 -15 -8 -8 0 -15 4 -15 8 0 5 7 9 15 9 8 0 15 -4
15 -9z m157 6 c-3 -3 -12 -4 -19 -1 -8 3 -5 6 6 6 11 1 17 -2 13 -5z m490 0
c-3 -3 -12 -4 -19 -1 -8 3 -5 6 6 6 11 1 17 -2 13 -5z m-730 -19 c0 -10 -10
-15 -29 -15 -20 0 -27 4 -22 13 6 10 4 10 -7 0 -7 -7 -24 -13 -37 -13 -21 0
-22 -2 -12 -15 9 -11 9 -15 1 -15 -6 0 -14 7 -17 15 -4 8 -12 15 -20 15 -20 0
-17 18 4 22 9 3 44 5 78 6 49 2 61 0 61 -13z m-1270 -1 c-3 -3 -12 -4 -19 -1
-8 3 -5 6 6 6 11 1 17 -2 13 -5z m2111 -9 c3 -3 -82 -5 -189 -5 -107 0 -210
-1 -229 -2 -70 -3 -96 5 -35 11 71 7 446 4 453 -4z m46 1 c-6 -15 -47 -46 -61
-46 -3 0 6 14 22 30 31 32 48 39 39 16z m-636 -3 c-10 -2 -28 -2 -40 0 -13 2
-5 4 17 4 22 1 32 -1 23 -4z m-2150 -58 c-1 -19 -4 -32 -7 -30 -7 8 -6 73 2
68 4 -2 6 -20 5 -38z m779 38 c-9 -2 -15 -9 -11 -14 9 -16 -46 -93 -58 -81
-13 13 20 64 36 55 6 -3 8 -3 4 2 -11 12 11 45 30 44 16 -1 15 -2 -1 -6z m958
-3 c8 -13 -16 -38 -32 -33 -21 7 -196 -218 -213 -276 -8 -24 -8 -23 -9 12 -1
44 28 92 122 202 89 104 115 123 132 95z m1089 -21 c-10 -12 -59 -55 -108 -97
-48 -41 -109 -97 -134 -124 -25 -26 -47 -46 -50 -43 -6 6 50 62 202 202 55 51
102 90 105 88 2 -3 -4 -14 -15 -26z m-2109 11 c3 -5 -1 -10 -10 -10 -9 0 -13
5 -10 10 3 6 8 10 10 10 2 0 7 -4 10 -10z m1074 -52 c11 -21 16 -38 11 -38
-11 0 -40 52 -40 71 0 16 4 12 29 -33z m51 -9 c0 -15 -12 -10 -31 12 -10 12
-16 26 -12 32 6 10 43 -27 43 -44z m831 34 c-5 -10 -26 -34 -47 -53 l-38 -35
43 53 c44 53 59 66 42 35z m-2771 -3 c0 -5 -4 -10 -10 -10 -5 0 -10 5 -10 10
0 6 5 10 10 10 6 0 10 -4 10 -10z m2820 0 c0 -5 -2 -10 -4 -10 -3 0 -8 5 -11
10 -3 6 -1 10 4 10 6 0 11 -4 11 -10z m220 0 c0 -5 -5 -10 -11 -10 -5 0 -7 5
-4 10 3 6 8 10 11 10 2 0 4 -4 4 -10z m-2980 -10 c0 -5 -4 -10 -10 -10 -5 0
-10 5 -10 10 0 6 5 10 10 10 6 0 10 -4 10 -10z m220 1 c0 -5 -7 -11 -15 -15
-9 -3 -15 0 -15 9 0 8 7 15 15 15 8 0 15 -4 15 -9z m1840 0 c0 -13 -21 -19
-43 -13 -15 4 -16 7 -5 13 17 12 48 11 48 0z m867 -7 c0 -9 -85 -100 -188
-202 -104 -102 -186 -188 -184 -191 3 -3 27 15 53 40 26 25 76 70 112 99 36
30 80 69 97 87 38 38 53 44 26 10 -25 -31 -200 -194 -243 -226 -19 -14 -60
-47 -91 -73 -30 -27 -58 -48 -62 -48 -4 0 -24 -19 -46 -42 -41 -45 -101 -86
-101 -69 0 5 15 18 33 30 17 11 50 38 71 60 22 22 42 39 45 37 3 -2 29 19 56
47 28 28 41 43 29 34 -48 -39 -28 -11 52 71 47 48 142 147 212 220 70 72 127
132 128 132 0 0 1 -7 1 -16z m-2227 2 c0 -2 -8 -10 -17 -17 -16 -13 -17 -12
-4 4 13 16 21 21 21 13z m130 -6 c0 -5 -5 -10 -11 -10 -5 0 -7 5 -4 10 3 6 8
10 11 10 2 0 4 -4 4 -10z m359 -47 c-1 -32 -5 -51 -8 -43 -6 16 -31 25 -31 12
0 -4 13 -23 30 -42 47 -56 37 -84 -12 -32 -23 23 -26 36 -26 95 0 64 0 67 24
67 23 0 24 -3 23 -57z m931 42 c0 -8 -6 -15 -14 -15 -17 0 -28 14 -19 24 12
12 33 6 33 -9z m-2434 -28 c6 2 17 -4 25 -14 13 -16 12 -17 -4 -4 -9 8 -20 11
-24 7 -3 -3 33 -45 80 -92 48 -48 87 -83 87 -78 0 5 15 -7 33 -26 31 -33 57
-48 57 -33 0 4 -14 22 -32 40 -17 18 -29 35 -27 38 6 5 162 -170 168 -188 2
-7 -20 14 -49 46 -40 44 -55 55 -65 47 -9 -8 -15 -8 -20 0 -3 6 -11 8 -16 4
-5 -3 -8 -2 -7 3 3 11 -120 128 -127 121 -3 -2 8 -17 24 -32 18 -17 27 -35 24
-45 -3 -11 -2 -12 4 -3 7 9 15 6 34 -14 l24 -27 -25 13 c-23 12 -24 12 -11 -3
7 -10 25 -23 40 -30 28 -13 36 -50 11 -54 -8 -2 -28 8 -45 23 -22 18 -23 21
-5 10 31 -20 40 -20 40 0 0 8 -5 12 -11 8 -6 -3 -24 10 -41 30 -30 36 -63 52
-37 19 7 -10 0 -5 -15 10 -17 17 -25 34 -22 44 5 12 9 13 21 3 9 -7 18 -10 21
-8 3 3 -16 23 -41 44 -25 20 -51 47 -57 58 -7 14 2 10 28 -14 l38 -35 -41 50
c-22 28 -50 59 -62 69 -21 19 -21 19 -21 -2 0 -12 5 -22 10 -22 6 0 10 -5 10
-11 0 -5 -4 -8 -9 -5 -4 3 -5 -13 -1 -36 5 -23 6 -49 3 -57 -4 -13 -3 -13 5
-2 6 8 12 9 16 3 3 -6 2 -13 -4 -17 -15 -9 -12 -56 4 -74 12 -13 12 -19 1 -34
-7 -10 -16 -17 -20 -15 -4 2 -7 -41 -8 -94 0 -83 3 -101 19 -120 12 -13 13
-18 4 -13 -8 5 1 -8 20 -28 20 -21 37 -32 41 -25 7 11 179 -118 179 -134 0
-22 -38 -19 -96 10 -51 25 -63 36 -66 58 -2 15 -14 34 -27 43 l-25 16 18 -27
c11 -17 15 -35 10 -53 l-7 -28 -13 24 c-7 13 -13 38 -14 55 0 32 -24 63 -38
50 -4 -4 1 -12 11 -17 9 -6 17 -17 17 -26 0 -12 -3 -13 -14 -3 -16 12 -22 -7
-29 -95 -3 -34 -4 -32 -5 13 -1 33 -6 52 -14 53 -10 0 -10 2 0 6 9 3 12 36 11
116 0 62 -3 106 -6 100 -7 -20 -103 -17 -103 2 0 12 13 15 55 15 l55 0 0 212
0 211 23 -20 c12 -11 27 -19 33 -16z m-176 14 c0 -14 -18 -23 -30 -16 -6 4 -8
11 -5 16 8 12 35 12 35 0z m1385 -11 c10 -11 16 -20 13 -20 -3 0 -13 9 -23 20
-10 11 -16 20 -13 20 3 0 13 -9 23 -20z m865 11 c0 -12 -20 -25 -27 -18 -7 7
6 27 18 27 5 0 9 -4 9 -9z m-946 -16 c-4 -8 -8 -15 -10 -15 -2 0 -4 7 -4 15 0
8 4 15 10 15 5 0 7 -7 4 -15z m-88 -57 c-35 -59 -64 -62 -34 -4 28 56 39 69
51 57 5 -5 -1 -26 -17 -53z m1094 34 c3 -3 -7 -2 -22 2 -23 5 -30 2 -42 -21
-20 -37 -20 -21 -1 18 14 26 18 28 38 18 12 -7 24 -14 27 -17z m953 -43 c-39
-38 -73 -73 -75 -77 -8 -18 -166 -162 -178 -162 -18 0 8 28 173 181 149 138
199 175 80 58z m-2253 51 c0 -5 -5 -10 -11 -10 -5 0 -7 5 -4 10 3 6 8 10 11
10 2 0 4 -4 4 -10z m324 -35 c-21 -52 -18 -102 7 -116 16 -8 20 -8 14 0 -4 7
-4 20 0 29 6 15 8 15 16 -3 5 -11 27 -45 48 -75 22 -30 37 -59 33 -64 -3 -6
-11 3 -18 19 -18 43 -54 73 -93 77 -19 2 -38 10 -44 19 -14 22 1 107 23 129
10 10 15 22 12 26 -4 4 -2 4 5 0 9 -5 8 -15 -3 -41z m1846 41 c0 -2 -8 -10
-17 -17 -16 -13 -17 -12 -4 4 13 16 21 21 21 13z m-2438 -24 c-7 -2 -13 -16
-13 -30 -1 -27 -1 -27 -8 3 -9 37 -5 46 16 38 11 -4 13 -8 5 -11z m168 8 c0
-5 -5 -10 -11 -10 -5 0 -7 5 -4 10 3 6 8 10 11 10 2 0 4 -4 4 -10z m1860 -14
c0 -22 -3 -23 -37 -19 -46 6 -56 13 -20 13 17 0 27 5 27 15 0 8 7 15 15 15 9
0 15 -9 15 -24z m-2080 6 c0 -5 -13 -7 -30 -4 -16 2 -30 6 -30 8 0 2 14 4 30
4 17 0 30 -4 30 -8z m415 -2 c-3 -5 -13 -10 -21 -10 -8 0 -12 5 -9 10 3 6 13
10 21 10 8 0 12 -4 9 -10z m1287 -72 c28 -62 11 -43 -22 25 -17 34 -22 51 -13
38 10 -14 25 -42 35 -63z m1028 79 c0 -2 -15 -16 -32 -33 l-33 -29 29 33 c28
30 36 37 36 29z m-1070 -61 c0 -6 -7 -1 -15 10 -8 10 -14 26 -14 34 0 16 28
-28 29 -44z m270 50 c0 -11 -19 -15 -25 -6 -3 5 1 10 9 10 9 0 16 -2 16 -4z
m57 -2 c-3 -3 -12 -4 -19 -1 -8 3 -5 6 6 6 11 1 17 -2 13 -5z m-1597 -17 c0
-2 -10 -12 -22 -23 l-23 -19 19 23 c18 21 26 27 26 19z m2400 -1 c0 -2 -9 -6
-20 -9 -11 -3 -20 -1 -20 4 0 5 9 9 20 9 11 0 20 -2 20 -4z m-2356 -20 c-3 -8
-12 -12 -20 -9 -21 8 -17 23 6 23 13 0 18 -5 14 -14z m-922 -44 c16 -14 26
-27 23 -30 -9 -9 -65 50 -64 67 0 13 2 13 6 2 3 -8 19 -26 35 -39z m133 8 l30
-35 -32 29 c-18 17 -33 34 -33 40 0 5 1 7 3 5 1 -2 16 -20 32 -39z m824 -138
c-40 -79 -77 -146 -82 -149 -15 -9 -19 5 -7 27 10 18 9 24 -1 32 -11 7 -9 8 5
6 16 -2 32 22 85 129 37 73 68 124 70 115 2 -9 -30 -81 -70 -160z m1064 158
c-3 -12 -8 -19 -11 -16 -5 6 5 36 12 36 2 0 2 -9 -1 -20z m-1572 -100 c-8 -24
-17 40 -11 80 4 33 5 32 10 -15 3 -27 3 -57 1 -65z m619 90 c0 -5 -4 -10 -10
-10 -5 0 -10 5 -10 10 0 6 5 10 10 10 6 0 10 -4 10 -10z m876 -69 c-23 -53
-26 -75 -26 -176 0 -77 -4 -115 -11 -115 -8 0 -10 41 -7 133 3 124 5 135 33
186 37 68 44 51 11 -28z m303 61 c7 -14 6 -18 -10 -19 -10 -1 -22 3 -25 9 -5
8 -1 9 10 5 14 -5 17 -3 12 8 -8 21 1 19 13 -3z m-84 -2 c3 -5 1 -10 -4 -10
-6 0 -11 5 -11 10 0 6 2 10 4 10 3 0 8 -4 11 -10z m127 -22 c-9 -9 -12 -7 -12
12 0 19 3 21 12 12 9 -9 9 -15 0 -24z m-705 16 c-3 -3 -12 -4 -19 -1 -8 3 -5
6 6 6 11 1 17 -2 13 -5z m310 -51 c-36 -69 -37 -70 -37 -52 0 14 56 109 64
109 2 0 -10 -26 -27 -57z m239 -20 c20 -43 47 -101 59 -129 l23 -51 -43 -72
c-64 -109 -85 -119 -29 -15 l48 92 -24 52 c-13 28 -27 53 -32 56 -4 3 -21 -23
-39 -57 -22 -44 -26 -60 -15 -56 10 4 13 1 9 -9 -3 -8 0 -20 5 -27 7 -8 7 -18
2 -27 -7 -12 -10 -11 -16 5 -4 11 -16 27 -26 36 -20 15 -19 17 11 77 17 34 31
64 31 67 0 3 -15 5 -34 5 -31 0 -35 -4 -60 -59 -22 -49 -24 -64 -16 -87 13
-34 9 -123 -5 -118 -6 3 -9 22 -7 44 3 32 1 40 -12 40 -22 0 -20 17 10 100 14
39 24 80 22 92 -2 12 3 23 11 26 9 3 11 0 6 -8 -6 -9 -4 -12 7 -8 8 3 34 2 59
-2 24 -5 45 -7 47 -6 1 2 -7 24 -18 50 -11 26 -20 52 -20 57 0 23 13 3 46 -68z
m-1931 56 c11 -17 -1 -21 -15 -4 -8 9 -8 15 -2 15 6 0 14 -5 17 -11z m1797
-15 c-3 -15 -8 -22 -14 -16 -9 9 -1 42 12 42 4 0 5 -12 2 -26z m197 -106 c36
-70 57 -119 51 -123 -6 -4 -16 8 -22 27 -6 18 -24 57 -40 86 -36 70 -72 150
-60 137 5 -5 37 -63 71 -127z m-1659 102 c-9 -6 -9 -17 1 -49 12 -42 9 -58
-10 -46 -6 3 -11 26 -11 51 0 37 -3 44 -20 44 -11 0 -20 4 -20 8 0 4 16 6 36
4 21 -3 31 -8 24 -12z m731 10 c10 -6 19 -17 19 -26 0 -11 -4 -12 -19 -5 -10
6 -21 17 -25 26 -6 18 -2 19 25 5z m1082 -5 c-3 -9 -8 -14 -10 -11 -3 3 -2 9
2 15 9 16 15 13 8 -4z m150 8 c-13 -2 -35 -2 -50 0 -16 2 -5 4 22 4 28 0 40
-2 28 -4z m194 1 c-3 -3 -12 -4 -19 -1 -8 3 -5 6 6 6 11 1 17 -2 13 -5z m86
-1 c-13 -2 -33 -2 -45 0 -13 2 -3 4 22 4 25 0 35 -2 23 -4z m-1703 -31 l22
-17 -21 -19 c-27 -24 -26 -33 4 -78 29 -43 34 -71 6 -40 -10 12 -23 22 -29 22
-12 0 -42 -72 -42 -100 0 -11 -4 -20 -10 -20 -16 0 -12 38 11 91 26 58 18 79
-8 23 -22 -48 -22 -49 -29 -42 -3 3 4 24 15 47 18 34 19 44 9 60 -10 16 -9 27
5 55 19 40 34 44 67 18z m202 -55 c36 -47 38 -52 38 -123 0 -41 -4 -74 -8 -74
-5 0 -9 8 -9 18 1 115 -2 127 -48 186 -25 32 -45 61 -45 63 0 11 34 -23 72
-70z m946 48 c-3 -3 -9 2 -12 12 -6 14 -5 15 5 6 7 -7 10 -15 7 -18z m-1331
-34 c-12 -22 -23 -38 -25 -36 -6 6 32 84 39 79 4 -2 -2 -22 -14 -43z m705 9
c-2 -21 -10 -44 -18 -51 -12 -9 -14 -5 -14 28 0 35 13 63 30 63 3 0 4 -18 2
-40z m718 24 c0 -8 -4 -12 -10 -9 -5 3 -10 10 -10 16 0 5 5 9 10 9 6 0 10 -7
10 -16z m-340 -4 c0 -5 -5 -10 -11 -10 -5 0 -7 5 -4 10 3 6 8 10 11 10 2 0 4
-4 4 -10z m427 -22 c-3 -7 -5 -2 -5 12 0 14 2 19 5 13 2 -7 2 -19 0 -25z
m-2406 -14 c18 -19 27 -32 18 -29 -14 5 -65 65 -56 65 2 0 19 -16 38 -36z
m2762 16 c3 -13 -1 -21 -15 -26 -26 -8 -32 0 -18 25 14 26 26 27 33 1z m-498
-40 c14 -27 23 -50 20 -50 -2 0 -16 23 -30 50 -14 28 -23 50 -20 50 2 0 16
-22 30 -50z m311 22 c-22 -5 -30 3 -21 18 5 8 11 7 22 -2 15 -12 14 -13 -1
-16z m-1236 -14 c0 -12 -14 -10 -28 4 -19 19 -14 29 8 16 11 -7 20 -16 20 -20z
m883 -3 c9 -19 15 -35 13 -35 -2 0 -13 16 -25 35 -11 19 -17 35 -13 35 5 0 16
-16 25 -35z m131 -2 c24 -49 37 -95 26 -88 -5 3 -14 21 -20 40 -6 19 -16 35
-21 35 -6 0 -8 4 -4 9 3 5 1 12 -5 16 -12 7 -13 25 -2 25 5 0 16 -17 26 -37z
m486 34 c0 -2 -10 -12 -22 -23 l-23 -19 19 23 c18 21 26 27 26 19z m-1910 -23
c0 -8 -4 -12 -10 -9 -5 3 -10 10 -10 16 0 5 5 9 10 9 6 0 10 -7 10 -16z m195
5 c4 -6 13 -8 21 -5 8 3 14 1 14 -4 0 -5 7 -7 15 -4 9 4 15 0 15 -8 0 -8 11
-37 25 -64 38 -75 29 -87 -11 -16 -21 36 -52 73 -72 87 -20 14 -31 25 -25 25
7 0 15 -5 18 -11z m642 -11 c-3 -8 -6 -5 -6 6 -1 11 2 17 5 13 3 -3 4 -12 1
-19z m-1268 -7 c0 -3 -4 -15 -9 -26 -7 -15 -9 -16 -9 -4 -1 10 -13 19 -33 23
-22 4 -29 9 -20 15 14 8 72 2 71 -8z m151 3 c0 -17 -22 -14 -28 4 -2 7 3 12
12 12 9 0 16 -7 16 -16z m198 -9 c-6 -14 -13 -23 -16 -21 -7 7 9 46 18 46 5 0
4 -11 -2 -25z m-445 8 c-7 -2 -21 -2 -30 0 -10 3 -4 5 12 5 17 0 24 -2 18 -5z
m517 -24 c0 -5 -4 -9 -10 -9 -5 0 -10 7 -10 16 0 8 5 12 10 9 6 -3 10 -10 10
-16z m39 -63 c-39 -74 -39 -112 -1 -59 26 36 38 24 17 -16 -15 -30 -15 -34 7
-74 12 -23 23 -43 24 -45 1 -1 9 0 18 4 13 5 16 13 11 33 -4 14 -11 29 -17 32
-7 4 -6 9 2 14 6 4 12 5 13 4 2 -2 10 -21 20 -41 13 -31 22 -38 44 -38 24 -1
25 -2 10 -11 -9 -5 -22 -7 -27 -4 -28 17 -164 -92 -263 -210 -28 -33 -48 -53
-45 -43 5 11 0 18 -15 23 -21 6 -22 6 -2 14 14 6 22 4 25 -5 4 -10 8 -9 18 6
11 17 9 20 -16 26 -51 11 -72 23 -72 44 0 24 22 26 41 4 7 -8 25 -22 40 -29
24 -13 29 -13 40 1 11 14 10 16 -13 13 -29 -4 -82 36 -71 54 3 5 9 4 13 -4 6
-8 13 0 24 26 20 46 20 55 2 29 -21 -29 -30 -10 -11 25 16 32 22 35 49 25 23
-9 20 -31 -10 -81 -14 -24 -22 -48 -19 -53 8 -14 67 0 89 20 18 18 18 19 -13
70 -18 29 -31 57 -29 64 8 28 143 264 149 260 4 -2 -10 -38 -32 -78z m687 0
l24 -66 -29 0 c-25 0 -31 6 -51 55 -22 54 -22 56 -5 76 24 25 31 17 61 -65z
m344 80 c0 -3 -4 -8 -10 -11 -5 -3 -10 -1 -10 4 0 6 5 11 10 11 6 0 10 -2 10
-4z m-1247 -41 c-9 -19 -18 -33 -21 -31 -4 5 26 66 33 66 3 0 -3 -16 -12 -35z
m117 12 c0 -7 -7 -22 -15 -33 -13 -17 -14 -16 -4 14 11 33 19 41 19 19z m-470
-18 c0 -6 -4 -7 -10 -4 -5 3 -10 11 -10 16 0 6 5 7 10 4 6 -3 10 -11 10 -16z
m381 -12 c-10 -9 -11 -8 -5 6 3 10 9 15 12 12 3 -3 0 -11 -7 -18z m507 -57
l-1 -55 -7 50 c-4 28 -8 55 -9 60 -6 20 0 30 9 15 5 -8 9 -40 8 -70z m1472 70
c0 -5 -5 -10 -11 -10 -5 0 -7 5 -4 10 3 6 8 10 11 10 2 0 4 -4 4 -10z m-1856
-15 c-4 -8 -10 -15 -15 -15 -4 0 -6 7 -3 15 4 8 10 15 15 15 4 0 6 -7 3 -15z
m-473 -12 c13 -16 12 -17 -3 -4 -10 7 -18 15 -18 17 0 8 8 3 21 -13z m1733 2
c3 -8 1 -15 -4 -15 -6 0 -10 7 -10 15 0 8 2 15 4 15 2 0 6 -7 10 -15z m651 -4
c-4 -3 -12 -6 -18 -6 -7 0 -12 -6 -12 -12 0 -7 -2 -12 -5 -11 -3 1 -16 -4 -29
-11 -19 -11 -17 -6 10 21 19 19 40 33 47 30 7 -2 10 -7 7 -11z m-2595 -105
c47 -43 89 -86 93 -95 5 -9 0 -7 -10 4 -10 12 -49 49 -88 84 -60 55 -70 61
-77 44 -7 -16 -7 -15 -5 4 1 12 -9 34 -23 50 l-25 28 25 -20 c14 -11 63 -56
110 -99z m585 83 c-7 -22 -97 -218 -115 -251 -6 -10 -10 -25 -10 -33 0 -8 -7
-15 -15 -15 -19 0 -20 29 0 36 8 4 13 10 10 14 -3 5 24 67 60 139 61 122 86
161 70 110z m-569 -11 l19 -23 -22 18 c-12 11 -27 16 -34 11 -8 -4 -10 -3 -5
4 10 17 21 15 42 -10z m487 7 c-3 -9 -8 -14 -10 -11 -3 3 -2 9 2 15 9 16 15
13 8 -4z m1942 5 c-3 -5 -13 -6 -22 -3 -12 5 -14 3 -8 -7 5 -9 4 -11 -4 -6
-16 10 -4 26 20 26 11 0 18 -4 14 -10z m-2385 -4 c0 -3 -4 -8 -10 -11 -5 -3
-10 -1 -10 4 0 6 5 11 10 11 6 0 10 -2 10 -4z m57 -30 c13 -11 23 -24 23 -30
0 -5 -13 2 -28 17 -16 15 -31 25 -34 22 -2 -3 -5 2 -5 10 0 15 9 12 44 -19z
m1684 11 c-10 -9 -11 -8 -5 6 3 10 9 15 12 12 3 -3 0 -11 -7 -18z m114 -92
c-26 -47 -51 -85 -56 -85 -14 0 -12 7 31 80 22 37 45 81 51 97 9 21 13 24 16
11 3 -10 -17 -56 -42 -103z m263 80 c6 -14 8 -25 3 -25 -4 0 -13 11 -19 25 -6
14 -8 25 -3 25 4 0 13 -11 19 -25z m-1667 -32 c-11 -21 -20 -35 -21 -31 0 12
33 78 38 74 2 -2 -6 -21 -17 -43z m1709 11 c12 -19 20 -37 18 -39 -2 -3 -15
13 -27 35 -28 50 -21 53 9 4z m-550 11 c0 -8 -4 -15 -10 -15 -5 0 -10 7 -10
15 0 8 5 15 10 15 6 0 10 -7 10 -15z m410 11 c0 -2 -7 -7 -16 -10 -8 -3 -12
-2 -9 4 6 10 25 14 25 6z m-1895 -16 c3 -5 1 -10 -4 -10 -6 0 -11 5 -11 10 0
6 2 10 4 10 3 0 8 -4 11 -10z m1971 -37 c-4 -4 -14 1 -22 11 -22 31 -17 43 8
19 12 -13 18 -26 14 -30z m-1716 21 c0 -8 -4 -12 -10 -9 -5 3 -10 10 -10 16 0
5 5 9 10 9 6 0 10 -7 10 -16z m1537 -82 c-35 -69 -43 -93 -34 -102 7 -7 -5 -2
-25 11 -20 13 -35 26 -32 28 2 3 10 -1 16 -7 16 -16 28 -15 28 3 0 28 78 171
87 161 3 -3 -15 -45 -40 -94z m296 66 c6 -22 5 -22 -8 -4 -17 22 -20 40 -6 32
5 -3 11 -16 14 -28z m187 14 c0 -12 -3 -12 -15 -2 -8 7 -15 13 -15 15 0 1 7 2
15 2 8 0 15 -7 15 -15z m-1517 -21 c15 -27 14 -41 -4 -41 -14 0 -41 48 -34 60
10 16 20 12 38 -19z m27 13 c0 -8 -4 -12 -10 -9 -5 3 -10 10 -10 16 0 5 5 9
10 9 6 0 10 -7 10 -16z m1130 7 c0 -4 18 -36 40 -70 34 -53 44 -61 63 -56 17
5 19 4 7 -4 -13 -9 -12 -12 5 -26 20 -15 20 -15 -7 -36 -16 -11 -28 -25 -28
-29 0 -5 -16 -35 -35 -66 -26 -44 -36 -54 -41 -41 -3 9 3 28 14 44 11 15 29
47 41 71 l22 44 -42 54 c-22 29 -45 52 -49 49 -15 -9 -69 -103 -63 -109 4 -3
-2 -12 -12 -20 -12 -9 -16 -19 -11 -31 7 -18 6 -18 -13 -1 -14 12 -17 22 -10
30 5 6 29 45 53 86 33 56 41 78 33 88 -8 10 -15 7 -34 -15 l-23 -28 10 29 c6
16 12 32 14 35 6 9 66 11 66 2z m389 -14 c-8 -8 -31 -33 -52 -56 -21 -23 -43
-39 -48 -36 -13 8 -1 25 17 25 8 0 14 6 14 14 0 16 69 80 77 72 3 -3 -1 -11
-8 -19z m-2314 -16 c-6 -5 -25 10 -25 20 0 5 6 4 14 -3 8 -7 12 -15 11 -17z
m1432 23 c-3 -3 -12 -4 -19 -1 -8 3 -5 6 6 6 11 1 17 -2 13 -5z m-1007 -13 c0
-6 -4 -13 -10 -16 -5 -3 -10 1 -10 9 0 9 5 16 10 16 6 0 10 -4 10 -9z m43 3
c7 -8 -16 -33 -25 -28 -9 6 1 34 11 34 4 0 10 -3 14 -6z m805 -1 c-32 -2 -86
-2 -120 0 -35 2 -9 3 57 3 66 0 94 -1 63 -3z m218 -16 c-1 -19 -5 -22 -26 -18
-16 3 -20 6 -10 9 8 3 19 11 23 18 11 20 15 17 13 -9z m-1821 -7 c10 -11 16
-20 13 -20 -3 0 -13 9 -23 20 -10 11 -16 20 -13 20 3 0 13 -9 23 -20z m347
-24 c3 3 5 -6 4 -19 -1 -21 -4 -23 -18 -16 -10 5 -18 17 -18 26 0 9 -8 26 -17
37 -10 12 -4 9 13 -7 17 -15 33 -25 36 -21z m1061 37 c-7 -2 -19 -2 -25 0 -7
3 -2 5 12 5 14 0 19 -2 13 -5z m310 0 c-7 -2 -21 -2 -30 0 -10 3 -4 5 12 5 17
0 24 -2 18 -5z m-433 -32 c-104 -34 -253 -109 -308 -156 -47 -41 -165 -187
-210 -260 -51 -83 -95 -204 -89 -244 3 -20 26 -74 52 -121 27 -47 61 -121 77
-164 l29 -79 -18 -44 c-19 -48 -69 -83 -116 -83 -23 0 -25 4 -35 97 -10 86 -9
99 4 106 9 5 30 22 48 38 l31 28 -54 104 -55 103 12 60 c17 85 68 185 148 291
116 154 164 198 278 253 106 52 237 100 271 99 11 0 -18 -12 -65 -28z m-643 4
c0 -8 -4 -15 -8 -15 -4 0 -11 -9 -14 -21 -4 -11 -9 -18 -12 -16 -4 5 24 67 31
67 1 0 3 -7 3 -15z m990 4 c88 -11 231 -47 238 -59 3 -4 -21 0 -53 10 -82 26
-244 43 -330 36 -254 -23 -491 -152 -626 -341 -58 -81 -91 -148 -106 -218 -8
-32 -17 -60 -22 -63 -20 -12 -4 -65 63 -207 74 -160 88 -200 70 -211 -6 -4 -9
-12 -6 -17 4 -5 0 -9 -9 -9 -8 0 -16 -3 -19 -7 -2 -5 -2 -1 1 7 20 65 6 114
-79 278 -33 63 -59 125 -59 139 0 66 101 255 208 390 101 126 310 237 507 268
103 17 127 17 222 4z m373 1 c0 -5 -4 -10 -10 -10 -5 0 -10 5 -10 10 0 6 5 10
10 10 6 0 10 -4 10 -10z m408 -15 c-3 -3 -9 2 -12 12 -6 14 -5 15 5 6 7 -7 10
-15 7 -18z m-1678 -5 c0 -11 -7 -20 -15 -20 -15 0 -21 21 -8 33 12 13 23 7 23
-13z m1670 -44 c0 -6 -7 -1 -15 10 -8 10 -15 23 -15 28 0 6 7 1 15 -10 8 -10
15 -23 15 -28z m60 34 c0 -5 -2 -10 -4 -10 -3 0 -8 5 -11 10 -3 6 -1 10 4 10
6 0 11 -4 11 -10z m-16 -49 c-7 -7 -34 28 -34 43 1 6 10 0 21 -13 11 -13 17
-27 13 -30z m-1735 8 c-11 -21 -24 -24 -34 -9 -9 15 14 40 31 33 10 -4 11 -10
3 -24z m1050 6 c229 -56 424 -196 554 -397 92 -141 134 -268 141 -428 l5 -95
-9 95 c-22 225 -113 407 -294 585 -78 77 -108 99 -196 143 -115 58 -219 87
-359 101 -125 13 -210 -2 -425 -78 -33 -12 -62 -19 -64 -16 -14 13 190 88 298
109 49 9 286 -3 349 -19z m1206 5 c-3 -5 -16 -15 -28 -21 -21 -10 -21 -9 2 10
25 23 36 27 26 11z m155 -14 c0 -6 -15 -27 -34 -45 -26 -25 -38 -31 -50 -24
-15 8 -15 11 5 29 11 10 24 19 28 19 3 0 6 6 6 13 0 15 26 33 37 26 4 -3 8
-11 8 -18z m59 -96 c2 9 6 5 11 -10 9 -30 1 -381 -10 -393 -7 -9 -21 319 -18
448 l2 80 6 -70 c4 -38 8 -63 9 -55z m-2769 -28 c0 -3 -11 5 -24 17 -15 14
-30 20 -37 16 -7 -5 -10 -4 -6 2 7 11 -46 67 -55 58 -2 -3 -10 7 -17 21 -9 20
8 9 64 -41 41 -37 75 -70 75 -73z m1249 53 c121 -53 155 -64 170 -55 39 21 35
9 -7 -19 -24 -16 -55 -46 -69 -67 -14 -22 -27 -40 -28 -42 -1 -1 -37 14 -80
35 -93 44 -162 53 -231 29 -60 -20 -67 -15 -12 10 68 30 133 24 233 -24 l85
-41 11 22 c6 12 23 34 36 49 30 31 43 22 -144 102 -151 65 -156 65 -310 14
-59 -20 -93 -37 -96 -47 -2 -10 -28 -27 -58 -38 -30 -12 -62 -24 -71 -28 -10
-4 -18 -3 -18 3 0 6 32 23 70 38 39 15 70 31 70 35 0 9 -111 -31 -172 -62 -22
-11 -42 -18 -46 -15 -13 13 236 112 382 151 93 25 121 20 285 -50z m76 38
c123 -26 127 -28 87 -35 -29 -5 -53 -2 -79 8 -20 9 -69 24 -107 34 -106 28
-48 24 99 -7z m548 19 c6 -8 -27 -52 -39 -52 -4 0 -3 5 4 12 7 7 12 20 12 30
0 18 15 25 23 10z m747 4 c0 -2 -8 -10 -17 -17 -16 -13 -17 -12 -4 4 13 16 21
21 21 13z m-99 -50 c-26 -25 -33 -28 -41 -17 -6 11 0 21 23 37 44 30 56 18 18
-20z m207 -51 c-3 -33 -4 -35 -22 -22 -18 13 -18 15 -1 43 l18 29 -26 -30
c-20 -24 -28 -28 -38 -17 -11 10 -5 20 26 53 l40 40 3 -30 c2 -17 2 -47 0 -66z
m-2458 75 c0 -6 -8 -27 -19 -48 -10 -20 -24 -55 -31 -77 -19 -60 -60 -145 -71
-145 -5 0 1 24 12 53 12 28 27 70 34 92 22 68 54 135 65 135 5 0 10 -5 10 -10z
m793 -7 c-7 -2 -19 -2 -25 0 -7 3 -2 5 12 5 14 0 19 -2 13 -5z m237 -18 c35
-14 84 -25 109 -25 l46 -1 -34 -15 c-32 -14 -37 -13 -105 18 -111 50 -121 64
-16 23z m-315 6 c-12 -11 -155 -62 -155 -56 0 6 21 15 105 46 58 21 62 22 50
10z m263 -51 c56 -27 102 -51 102 -54 0 -3 -39 13 -86 36 -77 37 -95 42 -176
45 -83 4 -94 2 -152 -27 -34 -16 -66 -30 -70 -30 -3 0 -47 -16 -97 -35 -50
-20 -96 -34 -103 -32 -13 5 52 35 172 78 48 18 105 38 127 46 28 11 61 13 110
10 65 -5 68 -5 45 9 l-25 15 25 -7 c14 -3 71 -28 128 -54z m-1097 27 c-10 -9
-11 -8 -5 6 3 10 9 15 12 12 3 -3 0 -11 -7 -18z m1929 19 c0 -2 -8 -10 -17
-17 -16 -13 -17 -12 -4 4 13 16 21 21 21 13z m323 -11 c-3 -9 -8 -14 -10 -11
-3 3 -2 9 2 15 9 16 15 13 8 -4z m-2623 -11 c0 -8 -5 -12 -10 -9 -6 4 -8 11
-5 16 9 14 15 11 15 -7z m2225 6 c-4 -6 -2 -17 5 -24 8 -11 6 -22 -8 -48 -11
-19 -27 -49 -36 -66 -9 -18 -21 -30 -26 -27 -6 3 2 29 17 58 15 30 26 66 24
85 -1 23 3 32 14 32 9 0 13 -5 10 -10z m-447 -40 c97 -50 135 -82 229 -189
148 -169 225 -396 221 -650 l-1 -106 -7 135 c-7 142 -32 265 -73 367 -29 72
-75 145 -86 139 -8 -5 -66 16 -164 58 -37 16 -38 16 -71 -9 -18 -14 -60 -55
-93 -90 -33 -36 -67 -65 -75 -65 -8 0 31 45 87 100 55 55 106 100 112 100 6 0
53 -20 104 -44 51 -25 95 -43 98 -41 2 3 -15 29 -38 58 -95 124 -246 241 -310
241 -19 0 -29 2 -23 4 6 2 8 10 5 18 -8 21 1 18 85 -26z m1060 26 l24 -13 -26
-16 c-24 -16 -120 -61 -141 -66 -5 -1 -11 2 -13 7 -3 9 115 102 128 101 3 0
16 -6 28 -13z m-3098 -37 c0 -8 -31 -21 -37 -15 -2 2 -1 16 3 31 7 26 8 27 20
10 8 -11 14 -22 14 -26z m3340 21 c0 -11 -2 -20 -4 -20 -2 0 -6 9 -9 20 -3 11
-1 20 4 20 5 0 9 -9 9 -20z m-2817 -23 c-3 -5 -10 -4 -15 1 -6 6 -7 16 -3 22
6 9 9 9 16 -1 4 -7 5 -17 2 -22z m1107 19 c73 -15 142 -45 134 -58 -3 -4 -15
-2 -27 6 -36 22 -118 45 -181 50 -51 4 -69 0 -122 -24 -34 -17 -80 -46 -101
-65 -21 -19 -47 -35 -58 -35 -15 0 -11 6 17 25 20 14 41 31 45 39 4 7 37 27
73 44 74 35 121 39 220 18z m576 -38 c4 -7 -9 1 -29 16 -20 16 -37 30 -37 33
0 7 58 -36 66 -49z m633 48 c-2 -2 -15 -9 -29 -15 -24 -11 -24 -11 -6 3 16 13
49 24 35 12z m-2259 -16 c0 -5 -5 -10 -11 -10 -5 0 -7 5 -4 10 3 6 8 10 11 10
2 0 4 -4 4 -10z m64 -15 c16 -12 17 -15 4 -15 -8 0 -21 7 -28 15 -16 19 -1 19
24 0z m1617 -2 c13 -16 12 -17 -3 -4 -17 13 -22 21 -14 21 2 0 10 -8 17 -17z
m162 -13 c-9 -16 -21 -30 -25 -30 -5 0 -2 14 7 30 9 17 20 30 26 30 5 0 2 -13
-8 -30z m352 20 c6 -10 -113 -75 -123 -66 -3 3 20 17 51 31 32 13 57 29 57 35
0 13 7 13 15 0z m-1089 -34 c77 -35 62 -45 -20 -12 -74 30 -157 34 -221 11
-52 -19 -57 -18 -20 2 74 40 172 40 261 -1z m330 19 c18 -14 17 -14 -9 -5 -25
9 -35 6 -83 -27 -29 -21 -59 -50 -65 -65 -6 -15 -22 -34 -36 -43 -23 -15 -27
-15 -76 13 -55 31 -134 52 -195 52 -20 0 -74 -15 -118 -33 -72 -29 -83 -31
-92 -18 -8 13 -13 14 -23 4 -22 -21 -62 -14 -99 16 -45 38 -35 48 13 15 40
-27 83 -26 140 3 16 8 34 12 40 10 7 -3 -3 -10 -21 -17 -18 -7 -31 -15 -28
-17 3 -3 36 7 75 22 96 38 192 33 281 -14 33 -17 67 -31 75 -31 8 0 27 19 42
41 28 43 116 109 143 109 9 0 25 -7 36 -15z m314 5 c0 -5 -2 -10 -4 -10 -3 0
-8 5 -11 10 -3 6 -1 10 4 10 6 0 11 -4 11 -10z m515 0 c6 -10 -164 -94 -173
-86 -6 6 114 66 132 66 7 0 16 7 20 15 6 17 12 19 21 5z m259 -28 c-4 -18 -12
-32 -19 -32 -6 0 -12 -6 -12 -14 0 -8 6 -12 14 -9 9 4 13 -5 13 -31 0 -34 -2
-36 -27 -31 l-28 5 28 -11 c37 -14 30 -31 -17 -42 -51 -12 -69 4 -39 35 l22
22 -39 17 c-48 22 -50 32 -7 50 17 7 39 19 47 26 44 36 65 51 68 49 1 -2 -1
-17 -4 -34z m-2911 -42 c25 -9 27 -13 27 -70 l0 -61 -38 31 c-53 43 -132 135
-132 155 0 13 10 11 58 -14 31 -17 69 -35 85 -41z m197 50 c14 -11 30 -20 35
-20 18 0 67 -49 60 -60 -10 -17 -30 -6 -30 16 0 13 -6 18 -18 16 -23 -4 -100
45 -92 58 9 14 17 12 45 -10z m2810 -6 c0 -3 -20 -30 -45 -61 l-45 -55 0 37
c0 50 44 109 71 94 10 -5 19 -12 19 -15z m-3180 -41 l0 -47 -30 29 c-16 16
-30 37 -30 47 0 13 8 18 30 18 29 0 30 -1 30 -47z m255 29 c-3 -3 -11 0 -18 7
-9 10 -8 11 6 5 10 -3 15 -9 12 -12z m2026 1 c13 -16 12 -17 -3 -4 -10 7 -18
15 -18 17 0 8 8 3 21 -13z m-1950 -10 c13 -16 12 -17 -3 -4 -10 7 -18 15 -18
17 0 8 8 3 21 -13z m292 2 c4 -8 1 -17 -5 -21 -7 -4 -8 -3 -4 4 5 8 0 12 -13
12 -12 0 -21 5 -21 10 0 16 37 12 43 -5z m1454 -10 c23 -14 43 -27 43 -29 0
-2 -27 -2 -59 1 l-59 6 -81 -77 c-58 -55 -87 -76 -106 -76 -14 0 -34 -4 -44
-10 -14 -7 -37 0 -92 27 -58 28 -87 36 -134 37 -65 1 -109 -19 -269 -123 -53
-33 -73 -42 -85 -34 -19 12 -92 -30 -151 -86 -55 -53 -65 -99 -51 -236 7 -60
16 -114 20 -120 4 -5 7 -27 6 -48 -1 -30 5 -44 32 -73 43 -46 123 -158 123
-173 0 -26 -27 -7 -55 40 -16 28 -51 76 -77 107 -26 31 -48 66 -48 77 0 21
-31 134 -45 169 -7 16 -5 18 9 13 15 -6 17 -3 12 15 -17 60 -18 145 -3 174 21
41 86 98 147 129 53 27 67 41 25 25 -60 -23 -113 -55 -153 -94 l-44 -41 32 52
c24 39 40 54 63 59 17 3 51 15 76 26 38 16 49 17 68 7 20 -11 30 -9 66 11 82
45 83 37 -15 124 l-89 78 -45 -17 c-24 -9 -46 -20 -49 -25 -6 -10 -141 -80
-154 -80 -6 0 -11 5 -11 10 0 6 6 10 14 10 7 0 58 24 112 54 143 77 132 77
211 4 121 -112 100 -106 189 -59 67 36 86 41 142 41 56 0 75 -5 130 -35 84
-47 91 -38 10 11 -54 33 -73 39 -134 42 -57 3 -79 0 -112 -17 -48 -25 -53 -25
-46 -8 8 22 66 37 154 39 87 2 114 -6 180 -53 24 -16 29 -16 56 -3 17 8 48 37
69 65 67 88 142 110 222 64z m188 -25 c27 -27 47 -50 44 -50 -3 0 -27 23 -54
50 -27 28 -47 50 -44 50 3 0 27 -22 54 -50z m-2065 30 c0 -5 -5 -10 -11 -10
-5 0 -7 5 -4 10 3 6 8 10 11 10 2 0 4 -4 4 -10z m165 -30 c8 0 15 -4 15 -8 0
-7 44 -34 60 -36 3 -1 21 -11 41 -24 40 -24 54 -28 43 -10 -4 7 -3 8 5 4 9 -6
9 -11 -1 -24 -12 -14 -10 -14 10 -3 13 7 28 10 35 7 7 -2 4 -5 -5 -5 -10 -1
-18 -5 -18 -11 0 -15 -26 -12 -40 5 -7 8 -64 42 -126 76 -63 33 -114 62 -114
65 0 2 18 -5 40 -16 21 -11 46 -20 55 -20z m899 25 c-10 -8 -26 -14 -34 -14
-9 0 -4 6 10 14 33 19 49 19 24 0z m106 0 c0 -8 -13 -21 -30 -30 -36 -18 -39
-11 -7 20 26 27 37 30 37 10z m410 5 c0 -5 -7 -10 -15 -10 -8 0 -15 5 -15 10
0 6 7 10 15 10 8 0 15 -4 15 -10z m-1062 -37 c-1 -22 3 -38 10 -41 13 -4 -28
-60 -57 -76 -14 -8 -14 -7 -2 7 12 15 12 17 -3 11 -11 -4 -15 -13 -11 -25 4
-12 -4 -37 -20 -65 -36 -61 -101 -271 -114 -370 -11 -72 -21 -109 -21 -71 0
10 -13 20 -32 26 -18 5 -25 10 -14 10 25 1 12 17 -71 82 l-63 51 -113 4 c-61
2 -131 7 -154 10 l-43 5 0 60 c0 58 1 59 28 59 72 -1 286 -64 282 -84 -1 -5 8
-14 18 -20 37 -21 117 -79 145 -104 21 -20 27 -22 27 -9 0 8 -4 19 -10 22 -13
8 -13 21 3 37 23 24 37 68 31 98 -4 16 -25 51 -48 77 -41 46 -49 83 -24 108 7
7 8 0 3 -22 -5 -27 -1 -36 30 -69 20 -20 39 -50 42 -66 7 -35 17 -27 31 25 9
31 8 38 -2 34 -9 -4 -12 0 -9 12 2 10 -3 25 -11 34 -27 27 -15 76 25 99 l34
20 -22 -20 c-23 -20 -32 -38 -13 -27 20 13 30 -6 15 -28 -16 -23 -20 -57 -7
-57 4 0 8 10 9 21 1 12 9 29 18 39 20 22 30 70 14 70 -6 0 0 13 14 29 14 17
33 55 42 85 21 66 47 77 43 19z m-868 17 c0 -5 -4 -10 -10 -10 -5 0 -10 5 -10
10 0 6 5 10 10 10 6 0 10 -4 10 -10z m286 -111 c20 -20 32 -39 27 -42 -6 -4
-39 -3 -74 1 l-64 7 -3 80 -2 80 40 -45 c22 -25 56 -61 76 -81z m874 113 c0
-4 -10 -13 -22 -21 -23 -14 -23 -14 -4 8 20 22 26 25 26 13z m100 0 c0 -6
-106 -65 -164 -91 -28 -12 16 27 67 60 56 36 97 49 97 31z m1747 -26 c-6 -16
-115 -61 -125 -52 -13 14 14 38 68 61 53 22 68 20 57 -9z m-1102 14 c3 -6 -1
-7 -9 -4 -18 7 -21 14 -7 14 6 0 13 -4 16 -10z m-1148 -12 c-2 -7 -12 -12 -22
-10 -9 2 -15 -1 -12 -5 3 -5 -5 -10 -19 -11 -33 -3 -30 6 9 23 40 18 50 18 44
3z m1983 8 c0 -2 -7 -7 -16 -10 -8 -3 -12 -2 -9 4 6 10 25 14 25 6z m-2350
-82 c0 -41 -4 -63 -10 -59 -5 3 -10 35 -10 71 0 41 4 63 10 59 6 -3 10 -35 10
-71z m181 24 c66 -38 69 -41 54 -58 -24 -26 -4 -32 50 -15 26 7 44 10 39 6 -5
-5 -31 -16 -59 -24 -53 -17 -135 -11 -157 11 -19 19 -2 24 40 11 44 -13 78 -6
66 12 -4 8 -3 9 4 5 7 -4 12 -3 12 3 0 5 -21 16 -47 24 -27 7 -47 19 -45 25 1
7 -4 13 -11 13 -6 1 -16 2 -22 4 -5 1 -15 3 -21 3 -6 1 -11 9 -11 17 0 20 21
13 108 -37z m1695 22 c32 -16 70 -39 84 -50 14 -12 -10 -4 -57 19 -46 23 -91
41 -101 41 -10 0 -54 -36 -98 -80 -73 -73 -84 -80 -120 -80 -21 0 -46 5 -54
10 -11 7 -1 10 34 10 47 0 51 2 130 80 49 48 89 80 102 80 11 0 47 -13 80 -30z
m280 -10 c7 7 21 10 31 7 14 -4 14 -5 -4 -6 -12 0 -25 -6 -28 -12 -8 -11 -55
27 -55 44 0 5 9 -2 21 -17 16 -21 24 -24 35 -16z m144 30 c0 -5 -4 -10 -9 -10
-6 0 -13 5 -16 10 -3 6 1 10 9 10 9 0 16 -4 16 -10z m-960 -10 l25 -8 -25 -1
c-14 0 -32 4 -40 9 -13 9 -13 10 0 9 8 -1 26 -5 40 -9z m1322 -15 c5 -22 2
-25 -25 -25 l-30 0 23 25 c13 14 24 25 26 25 1 0 4 -11 6 -25z m-2604 -43 c2
-42 0 -52 -12 -52 -13 0 -16 12 -16 56 0 73 24 70 28 -4z m1215 51 c-7 -2 -19
-2 -25 0 -7 3 -2 5 12 5 14 0 19 -2 13 -5z m1445 -21 c-5 -27 -28 -26 -28 2 0
19 4 24 15 19 9 -3 15 -12 13 -21z m-2366 -4 c-7 -7 -12 -8 -12 -2 0 14 12 26
19 19 2 -3 -1 -11 -7 -17z m648 -68 c74 -67 51 -64 -33 6 -61 50 -69 54 -102
48 -44 -8 -45 3 -3 21 37 15 41 13 138 -75z m-480 6 c-46 -84 -77 -170 -110
-306 -29 -118 -33 -343 -8 -455 39 -175 172 -427 283 -540 130 -130 268 -206
422 -231 147 -23 294 -22 408 5 249 59 504 265 644 521 22 41 41 70 41 65 0
-13 -90 -172 -133 -234 -119 -174 -336 -321 -547 -373 -155 -38 -413 -26 -550
25 -132 49 -303 182 -379 296 -93 139 -165 295 -202 439 -19 73 -23 114 -23
257 -1 193 14 273 79 425 31 75 96 180 110 180 3 0 -13 -33 -35 -74z m1406 22
c51 -29 92 -54 90 -55 -2 -2 -37 13 -78 32 -41 20 -91 38 -110 41 -32 6 -38 2
-103 -65 -37 -39 -76 -73 -87 -77 -28 -9 -113 14 -198 53 -45 21 -97 37 -130
40 -54 5 -56 4 -150 -60 -72 -50 -98 -63 -108 -55 -10 9 -3 18 33 40 93 58
177 98 206 98 37 0 124 -29 209 -69 98 -47 109 -44 204 49 56 55 89 80 105 80
13 0 66 -23 117 -52z m401 28 c2 -2 -18 -1 -44 2 -42 4 -46 3 -36 -10 7 -8 10
-18 7 -21 -8 -7 34 -77 46 -77 5 0 11 4 14 9 12 18 47 -3 91 -54 l45 -54 35
15 c19 8 35 12 35 9 0 -13 -66 -32 -78 -22 -7 5 -15 7 -18 4 -3 -3 -22 15 -41
41 -20 26 -37 49 -39 51 -1 1 -13 -4 -26 -13 -33 -24 -43 -20 -63 24 -18 39
-55 60 -40 23 3 -10 3 -14 -2 -8 -5 6 -19 22 -31 37 l-24 26 53 20 c38 14 61
17 82 11 17 -5 32 -10 34 -13z m699 -82 c4 -54 4 -97 1 -94 -3 3 -9 50 -13
105 -3 55 -4 97 0 94 3 -3 9 -50 12 -105z m-1951 86 c3 -5 1 -10 -4 -10 -6 0
-11 5 -11 10 0 6 2 10 4 10 3 0 8 -4 11 -10z m1046 -42 c31 -43 17 -34 -21 15
-19 23 -26 36 -17 28 10 -8 27 -27 38 -43z m449 31 c-43 -34 -60 -41 -60 -26
0 7 15 21 33 30 44 22 57 20 27 -4z m-2950 2 c0 -11 -70 -22 -84 -13 -6 4 7
10 29 13 22 3 43 7 48 8 4 0 7 -3 7 -8z m49 -168 c-2 -287 -15 -329 -20 -65
-3 181 -1 232 9 232 9 0 12 -40 11 -167z m441 157 c0 -5 -7 -10 -15 -10 -8 0
-15 5 -15 10 0 6 7 10 15 10 8 0 15 -4 15 -10z m1002 -11 c-18 -12 -35 -19
-38 -16 -3 3 7 12 23 21 42 23 53 19 15 -5z m1253 3 c-3 -3 -11 0 -18 7 -9 10
-8 11 6 5 10 -3 15 -9 12 -12z m-1565 -13 c0 -6 -25 -21 -55 -35 -57 -27 -59
-29 -80 -132 -4 -18 -22 -55 -41 -83 -19 -28 -34 -56 -34 -63 0 -6 27 -60 60
-120 63 -114 80 -160 80 -212 0 -34 -11 -47 -50 -59 l-25 -8 28 26 c22 21 26
32 21 54 -12 48 -43 123 -96 229 l-52 102 28 36 c15 20 41 79 57 131 l30 95
57 29 c55 28 72 30 72 10z m1018 11 c-7 -22 -143 -151 -165 -156 -13 -4 -38
-3 -56 0 -17 4 -47 8 -65 10 -36 3 -152 55 -152 68 0 12 3 11 58 -17 28 -14
55 -25 61 -25 6 0 11 -5 11 -11 0 -6 8 -8 20 -4 10 3 36 2 56 -4 56 -15 80 -1
177 107 35 39 63 55 55 32z m-884 -36 c26 -20 45 -38 42 -41 -3 -3 -26 10 -52
30 -25 20 -52 33 -60 30 -8 -3 -14 0 -14 6 0 22 38 10 84 -25z m1380 12 c15
-13 26 -27 26 -32 0 -5 -5 -2 -10 6 -8 13 -10 13 -10 1 0 -11 -6 -9 -20 7 -18
19 -27 42 -16 42 3 0 16 -11 30 -24z m369 4 c-5 -19 -57 -48 -162 -89 -72 -29
-85 -27 -121 19 -40 50 -28 53 15 3 l31 -36 23 31 c12 18 27 30 32 27 5 -4 9
-2 9 4 0 22 85 61 132 61 41 0 46 -2 41 -20z m-1761 -52 c30 -24 53 -36 60
-32 9 5 8 2 -1 -9 -13 -16 -17 -14 -59 20 -42 34 -46 36 -76 24 -54 -22 -72
-23 -33 -1 43 24 45 27 15 40 -19 8 -16 9 12 4 19 -3 56 -24 82 -46z m1811 35
c-7 -2 -19 -2 -25 0 -7 3 -2 5 12 5 14 0 19 -2 13 -5z m-2639 -12 c3 -5 26
-14 51 -20 34 -9 45 -16 45 -31 0 -27 -23 -25 -87 4 -36 17 -53 21 -57 13 -2
-7 -5 -6 -5 4 -2 29 40 52 53 30z m726 4 c0 -5 -52 -28 -91 -40 -43 -13 -7 12
41 29 54 18 50 17 50 11z m528 -12 c-10 -2 -28 -2 -40 0 -13 2 -5 4 17 4 22 1
32 -1 23 -4z m612 -33 c41 -18 85 -36 98 -41 21 -8 31 -29 13 -29 -5 0 -49 18
-97 40 -48 23 -93 39 -100 38 -25 -6 -224 -208 -224 -228 0 -11 -7 -20 -15
-20 -8 0 -15 -2 -15 -4 0 -3 16 -64 36 -138 48 -177 48 -179 24 -135 -12 21
-35 86 -52 144 l-30 106 27 54 c19 37 61 85 133 154 58 55 111 98 116 96 6 -3
45 -19 86 -37z m260 -82 c22 -42 40 -80 40 -85 0 -4 -20 28 -43 72 -23 44 -51
94 -61 110 l-18 30 21 -25 c11 -14 39 -59 61 -102z m584 100 c-7 -23 -6 -23
15 -4 28 25 27 9 -1 -21 -12 -13 -17 -23 -11 -23 6 0 16 7 23 15 15 18 30 20
30 3 0 -14 -80 -98 -93 -98 -5 0 0 15 12 33 15 24 19 43 15 75 -3 27 -1 42 6
42 7 0 9 -8 4 -22z m-2934 -53 c0 -56 -3 -65 -18 -65 -38 0 -62 29 -62 74 0
51 4 56 47 56 l33 0 0 -65z m45 12 c-18 -89 -35 -92 -35 -7 0 58 1 60 21 50
16 -9 19 -17 14 -43z m45 -22 c0 -51 -3 -65 -15 -65 -12 0 -15 14 -15 65 0 51
3 65 15 65 12 0 15 -14 15 -65z m34 59 c23 -9 22 -81 -1 -86 -10 -3 0 -5 22
-6 59 -1 177 -31 197 -49 24 -22 59 -83 48 -83 -5 0 -22 16 -37 36 -34 44 -71
64 -117 64 -19 0 -37 6 -39 13 -3 7 -6 5 -6 -5 -1 -14 -10 -18 -46 -18 l-45 0
0 70 c0 39 2 70 4 70 2 0 11 -3 20 -6z m1372 -5 c4 -8 -12 -10 -55 -7 -58 3
-61 2 -61 -21 0 -19 4 -22 23 -18 81 19 80 19 207 -44 136 -66 136 -66 128
-75 -6 -6 -49 13 -58 26 -11 16 -209 104 -217 97 -1 -2 40 -23 92 -46 52 -24
100 -50 106 -57 20 -24 -5 -16 -117 36 -59 28 -119 50 -133 50 -15 0 -62 -21
-106 -46 -44 -25 -101 -56 -127 -70 -25 -13 -50 -33 -53 -45 -4 -11 -9 -18
-11 -16 -3 2 1 16 7 31 12 26 208 156 236 156 7 0 13 11 13 23 0 22 -10 17
-124 -57 -122 -79 -125 -82 -145 -136 -17 -47 -27 -58 -63 -77 -24 -11 -62
-23 -86 -26 -24 -3 -46 -8 -49 -11 -4 -3 1 -24 10 -46 12 -32 13 -40 2 -40
-13 0 -38 87 -29 101 2 3 30 11 62 18 68 13 96 36 123 99 20 46 18 72 -6 92
-12 10 -21 7 -46 -14 -17 -15 -34 -24 -37 -21 -6 6 21 29 62 51 26 14 29 14
41 -3 44 -60 30 -63 161 26 117 79 120 80 181 81 34 0 65 -5 69 -11z m879 -20
c9 -17 15 -33 13 -35 -3 -2 -12 12 -21 31 -21 43 -13 47 8 4z m507 -21 c4 -50
-7 -88 -24 -88 -5 0 -8 8 -9 18 -1 11 -4 8 -8 -8 l-7 -25 -37 37 c-27 26 -37
45 -37 67 0 37 20 50 77 51 l41 0 4 -52z m-2120 17 c-8 -16 -9 -16 -15 -1 -4
10 -3 15 3 11 6 -3 10 -1 10 6 0 7 3 10 6 6 3 -3 2 -13 -4 -22z m-998 -159
c-3 -67 -8 -123 -10 -125 -2 -2 -4 63 -3 145 0 107 3 142 10 125 6 -14 7 -75
3 -145z m1076 111 c0 -43 -6 -62 -36 -107 -31 -47 -35 -61 -31 -97 2 -24 3
-43 2 -43 -2 0 -10 19 -18 43 -14 42 -14 43 20 92 19 29 38 74 45 107 7 32 13
58 15 58 2 0 3 -24 3 -53z m66 31 c-3 -13 -6 -26 -6 -30 0 -5 -5 -8 -11 -8 -6
0 -9 7 -5 15 3 8 1 15 -4 15 -6 0 -10 7 -10 15 0 9 9 15 21 15 17 0 20 -4 15
-22z m-716 -9 c0 -4 -7 -6 -15 -3 -8 4 -15 10 -15 15 0 4 7 6 15 3 8 -4 15
-10 15 -15z m209 -11 c-2 -13 0 -30 5 -38 4 -8 -2 -5 -13 8 -11 13 -17 30 -14
37 8 23 25 17 22 -7z m1591 2 c0 -5 -7 -7 -15 -4 -8 4 -12 10 -9 15 6 11 24 2
24 -11z m56 -7 c-10 -10 -19 5 -10 18 6 11 8 11 12 0 2 -7 1 -15 -2 -18z m478
-19 c53 -60 37 -69 -22 -12 -41 40 -50 45 -69 35 -25 -11 -29 -28 -12 -58 7
-14 16 -18 31 -13 21 6 98 -23 98 -38 0 -13 34 -9 58 8 12 8 26 13 30 10 4 -2
13 4 20 15 14 22 9 24 -19 9 -11 -6 -19 -7 -19 -1 0 5 14 14 30 20 17 5 29 7
26 3 -2 -4 9 -14 25 -21 26 -11 29 -17 24 -41 -4 -16 -2 -31 5 -35 5 -3 8 -10
6 -14 -3 -4 5 -13 17 -21 20 -12 21 -12 9 3 -11 13 -10 17 8 27 28 15 31 11
21 -26 -7 -25 -12 -29 -40 -27 -17 0 -47 13 -66 28 -35 26 -36 26 -65 8 -17
-9 -30 -20 -30 -24 0 -4 -25 -25 -55 -48 -36 -27 -55 -37 -55 -27 0 8 -3 23
-6 33 -4 11 -3 14 3 6 6 -8 32 3 93 42 65 41 81 55 67 60 -11 5 -35 -4 -65
-24 -27 -17 -53 -31 -57 -31 -5 0 -17 -7 -27 -17 -21 -19 -23 -17 -32 17 -3
14 -3 20 0 13 4 -8 13 -7 35 5 34 20 35 23 9 47 -24 22 -54 13 -47 -15 3 -11
1 -20 -4 -20 -5 0 -9 2 -9 4 0 2 -11 33 -25 69 l-25 66 28 15 c44 23 64 17
106 -30z m-2297 30 c-3 -3 -12 -4 -19 -1 -8 3 -5 6 6 6 11 1 17 -2 13 -5z
m533 -4 c0 -5 -4 -10 -10 -10 -5 0 -10 5 -10 10 0 6 5 10 10 10 6 0 10 -4 10
-10z m1402 -24 c84 -38 87 -43 118 -170 49 -204 57 -342 25 -461 -7 -27 -16
-66 -19 -86 -6 -34 -10 -38 -64 -55 -74 -25 -82 -41 -82 -176 l0 -106 -71 -66
c-133 -123 -287 -217 -364 -222 -22 -1 -60 -10 -85 -19 -70 -26 -130 -45 -130
-39 0 13 177 84 212 84 72 0 239 96 357 205 l73 69 -6 75 c-8 92 5 170 30 185
11 6 37 18 58 26 38 14 41 18 58 85 20 81 21 88 9 81 -5 -3 -12 -18 -15 -33
-24 -100 -25 -100 -69 -118 -82 -33 -87 -42 -87 -181 0 -85 -4 -125 -12 -132
-7 -6 -36 -19 -63 -29 -28 -11 -91 -46 -140 -80 -93 -62 -166 -103 -185 -103
-6 0 1 16 16 35 32 43 201 161 264 185 l45 18 5 68 c3 41 10 69 18 72 9 3 12
-14 12 -60 0 -36 -6 -71 -12 -81 -7 -9 -35 -26 -63 -37 -60 -25 -202 -120
-236 -156 -13 -15 23 5 81 44 58 38 134 84 169 101 36 17 68 37 73 44 4 6 8
69 8 138 l0 127 67 34 67 35 16 64 c14 58 18 64 44 67 l28 4 -3 113 c-4 118
-11 140 -32 112 -11 -16 -23 -15 -159 23 -80 22 -153 37 -161 34 -18 -7 -69
-118 -69 -150 0 -20 -24 -41 -35 -31 -2 3 11 38 30 78 18 41 32 80 29 88 -3
10 0 11 9 5 12 -7 12 -5 1 9 -8 9 -24 19 -35 23 -12 3 -30 13 -39 22 -22 18
-22 11 -3 -52 8 -27 15 -63 14 -80 0 -24 -3 -19 -14 24 -28 105 -36 130 -44
130 -5 0 4 -46 20 -102 33 -116 32 -115 20 -102 -11 10 -72 236 -66 242 2 3
12 -3 21 -12 22 -23 26 -16 13 23 -6 18 -9 34 -6 37 3 3 10 -12 17 -33 7 -21
17 -42 23 -48 10 -10 9 -2 -11 62 -6 19 -7 35 -2 38 5 3 15 -21 21 -54 12 -57
15 -60 53 -75 23 -9 103 -32 178 -51 152 -40 165 -38 192 16 21 42 21 42 -15
35 -17 -3 -44 0 -64 8 -29 13 -43 12 -117 -4 -84 -19 -135 -11 -62 9 112 31
151 35 178 18 24 -16 28 -16 52 -1 16 11 22 20 15 27 -6 6 -17 4 -31 -6 -12
-9 -29 -13 -37 -10 -10 4 -5 11 17 24 65 40 48 92 -51 150 -59 34 -91 59 -76
59 3 0 38 -15 79 -34z m833 -165 c-12 -12 -195 -14 -195 -2 0 6 4 11 9 11 10
0 159 150 175 176 9 15 12 -2 14 -80 1 -54 0 -101 -3 -105z m32 47 c-2 -29 -3
-6 -3 52 0 58 1 81 3 53 2 -29 2 -77 0 -105z m-2720 126 c-3 -3 -12 -4 -19 -1
-8 3 -5 6 6 6 11 1 17 -2 13 -5z m430 -5 c14 -14 6 -39 -13 -39 -8 0 -14 10
-14 25 0 27 9 32 27 14z m807 -49 c78 -36 116 -48 134 -43 25 6 25 6 6 -14
-21 -23 -8 -26 -179 48 l-100 43 -115 -61 c-86 -45 -118 -68 -129 -89 -7 -16
-31 -56 -52 -90 -41 -64 -46 -91 -26 -159 10 -33 21 -44 62 -66 49 -25 49 -26
46 -67 -4 -57 30 -126 70 -142 16 -7 27 -15 25 -18 -3 -2 -25 7 -50 22 -46 27
-47 28 -73 136 -7 27 -18 40 -48 56 -33 17 -42 28 -52 65 -22 83 -17 125 21
166 18 21 42 59 53 84 19 41 31 52 134 112 62 37 125 67 139 67 14 0 74 -23
134 -50z m504 11 c-2 8 -7 18 -13 22 -6 5 -4 7 5 4 8 -2 17 -12 18 -23 2 -10
15 -31 29 -45 21 -23 23 -30 14 -48 -15 -28 -17 -27 -36 13 -9 18 -26 39 -39
46 -13 7 -33 25 -45 40 l-20 28 45 -25 c30 -17 44 -21 42 -12z m695 9 c-3 -11
-9 -17 -15 -14 -5 3 -4 12 3 20 16 19 18 18 12 -6z m-2809 -5 c24 -18 18 -26
-12 -18 -12 3 -22 12 -22 19 0 18 10 17 34 -1z m2085 -90 c24 -49 29 -69 17
-75 -5 -3 -15 15 -22 40 -7 25 -29 64 -48 86 -20 23 -32 44 -29 48 9 9 59 -51
82 -99z m778 41 c-10 -26 -34 -18 -40 11 -3 16 -3 32 0 36 9 15 46 -30 40 -47z
m-2751 23 c6 -10 -11 -11 -43 -3 -13 4 -21 10 -18 14 6 9 53 1 61 -11z m1499
-36 c55 -24 108 -48 117 -53 29 -16 35 -12 69 40 17 27 36 47 40 44 5 -2 -7
-25 -26 -50 -42 -54 -43 -77 -12 -173 32 -96 13 -121 -32 -41 -12 23 -22 82
-12 76 5 -3 12 -21 15 -41 4 -19 12 -37 17 -41 12 -7 7 24 -15 101 -10 34 -20
44 -71 72 -33 18 -94 47 -135 64 l-74 31 -56 -17 c-30 -9 -68 -27 -85 -40 -16
-12 -41 -26 -55 -30 -14 -4 -34 -15 -45 -24 -19 -16 -19 -15 -4 9 22 34 214
133 242 124 12 -4 67 -26 122 -51z m635 27 c0 -14 -14 -12 -28 2 -19 19 -14
30 8 18 11 -6 20 -15 20 -20z m-1116 12 c2 -4 -2 -16 -10 -27 -13 -18 -14 -18
-14 8 0 25 13 36 24 19z m1071 -30 c-8 -9 -25 20 -18 31 3 5 10 2 15 -7 6 -10
7 -20 3 -24z m-1975 18 c0 -5 -13 -10 -30 -10 -16 0 -30 5 -30 10 0 6 14 10
30 10 17 0 30 -4 30 -10z m40 -15 c0 -19 7 -26 28 -31 15 -4 49 -27 76 -51 26
-23 52 -43 57 -43 5 0 9 -7 9 -15 0 -8 -4 -15 -10 -15 -5 0 -10 7 -10 15 0 8
-7 15 -16 15 -8 0 -30 14 -47 31 -17 17 -48 40 -69 51 -28 15 -38 26 -38 44 0
13 5 24 10 24 6 0 10 -11 10 -25z m1731 9 c32 -16 68 -81 69 -122 0 -40 -25
-19 -31 25 -6 49 -20 68 -68 93 -23 12 -30 19 -18 20 10 0 32 -7 48 -16z
m1226 -9 c0 -8 -4 -12 -9 -9 -5 3 -6 10 -3 15 9 13 12 11 12 -6z m-2142 -35
c0 -30 -35 -39 -55 -14 -12 14 -12 18 5 30 28 21 50 13 50 -16z m395 0 c0 -31
-3 -33 -53 -45 -16 -3 -41 -20 -57 -36 -25 -28 -31 -30 -74 -24 -25 4 -46 11
-46 15 0 9 51 34 90 45 75 20 110 39 110 56 0 11 7 19 15 19 10 0 15 -10 15
-30z m50 -1 c0 -11 8 -22 18 -25 58 -20 170 -78 180 -95 11 -17 9 -19 -15 -19
-34 0 -88 31 -102 59 -7 12 -27 23 -54 28 -40 8 -42 10 -45 47 -2 25 0 36 7
31 6 -3 11 -15 11 -26z m712 -2 c-6 -27 -20 -37 -50 -37 l-23 0 26 34 c29 38
56 39 47 3z m-1861 -13 c9 -11 2 -9 -18 6 -18 13 -33 25 -33 27 0 8 38 -17 51
-33z m1268 -19 c49 -24 93 -50 97 -56 4 -6 3 -10 -2 -7 -5 2 -41 20 -81 40
-40 19 -81 38 -93 41 -11 3 -20 10 -20 16 0 16 2 15 99 -34z m651 30 c0 -8 -4
-15 -9 -15 -5 0 -16 -3 -25 -6 -10 -4 -16 -1 -16 9 0 13 13 21 43 26 4 0 7 -6
7 -14z m-1213 -41 c-15 -13 -33 -24 -40 -24 -7 0 3 9 21 20 17 11 32 25 32 32
0 6 3 8 8 4 4 -4 -6 -19 -21 -32z m2100 -1 c-3 -10 -5 -4 -5 12 0 17 2 24 5
18 2 -7 2 -21 0 -30z m-2300 -60 c-2 -16 -4 -3 -4 27 0 30 2 43 4 28 2 -16 2
-40 0 -55z m1382 62 c-15 -8 -46 -17 -70 -19 -43 -5 -42 -5 9 8 30 8 56 17 59
20 4 3 11 6 17 6 6 -1 -1 -7 -15 -15z m-1624 -5 c3 -5 1 -10 -4 -10 -6 0 -11
5 -11 10 0 6 2 10 4 10 3 0 8 -4 11 -10z m212 -27 c-3 -10 -5 -4 -5 12 0 17 2
24 5 18 2 -7 2 -21 0 -30z m120 5 c-3 -7 -5 -2 -5 12 0 14 2 19 5 13 2 -7 2
-19 0 -25z m1008 -9 c9 -27 1 -33 -24 -19 -13 6 -21 21 -21 36 0 21 3 23 19
14 11 -5 23 -19 26 -31z m-515 -2 c0 -33 -40 -68 -68 -61 -17 5 -25 -1 -39
-25 -23 -39 -59 -42 -73 -6 -5 14 -14 25 -19 25 -5 0 -22 5 -37 10 -46 18 -13
29 50 17 57 -10 59 -10 81 15 45 52 105 66 105 25z m52 -9 c-2 -15 -11 -28
-18 -28 -9 0 -14 11 -14 28 0 20 5 28 18 28 14 0 17 -6 14 -28z m508 7 c0 -14
-4 -25 -10 -25 -5 0 -10 11 -10 25 0 14 5 25 10 25 6 0 10 -11 10 -25z m750
10 l25 -13 -29 -12 c-32 -12 -61 -6 -51 10 3 5 1 10 -5 10 -6 0 -8 5 -5 10 9
14 35 12 65 -5z m295 4 c4 -6 4 -25 1 -43 l-6 -32 -150 -14 c-83 -7 -153 -10
-157 -7 -3 4 8 7 25 7 27 0 31 3 34 32 4 40 37 54 39 16 l2 -23 4 24 c4 22 8
23 56 17 31 -5 62 -16 77 -29 23 -20 23 -20 7 -1 -23 28 -22 33 16 49 39 17
44 18 52 4z m-2421 -8 c3 -5 0 -11 -7 -14 -8 -3 -14 1 -14 9 0 16 13 19 21 5z
m964 -31 c29 -26 59 -42 84 -46 21 -4 38 -10 38 -15 0 -13 -7 -12 -80 12 -96
31 -115 42 -118 67 -5 34 24 27 76 -18z m1066 28 c-2 -7 -27 -29 -54 -48 -55
-40 -73 -66 -37 -54 31 10 68 35 62 43 -5 9 54 45 62 38 3 -3 1 -12 -3 -19 -5
-7 -9 -17 -9 -23 0 -5 -8 -9 -18 -7 -9 2 -17 -2 -17 -8 0 -6 -20 -20 -44 -32
-34 -16 -43 -26 -43 -45 0 -18 3 -23 16 -17 9 3 27 8 41 10 23 4 22 3 -5 -11
-16 -8 -36 -14 -43 -15 -9 0 -12 -10 -10 -27 3 -26 7 -28 58 -32 l55 -5 -60
-6 -60 -6 30 -14 c19 -9 71 -14 145 -15 179 -3 200 -4 200 -14 0 -11 -272 -7
-332 4 l-37 7 -4 -38 c-2 -22 -4 9 -5 67 -1 58 -4 126 -7 150 l-6 44 63 42
c72 48 69 47 62 31z m516 -48 c0 -27 -4 -50 -10 -50 -5 0 -10 23 -10 50 0 28
5 50 10 50 6 0 10 -22 10 -50z m27 -32 c-2 -18 -4 -6 -4 27 0 33 2 48 4 33 2
-15 2 -42 0 -60z m-2992 52 c-3 -5 -10 -10 -16 -10 -5 0 -9 5 -9 10 0 6 7 10
16 10 8 0 12 -4 9 -10z m445 6 c0 -3 -4 -8 -10 -11 -5 -3 -10 -1 -10 4 0 6 5
11 10 11 6 0 10 -2 10 -4z m-527 -13 c-18 -2 -48 -2 -65 0 -18 2 -4 4 32 4 36
0 50 -2 33 -4z m130 0 c-7 -2 -19 -2 -25 0 -7 3 -2 5 12 5 14 0 19 -2 13 -5z
m365 -5 c22 -22 14 -48 -13 -48 -27 0 -28 3 -19 38 7 25 15 27 32 10z m492 3
c0 -5 -11 -18 -25 -29 -28 -22 -31 -49 -14 -116 6 -24 9 -54 7 -67 -3 -16 -10
-1 -23 49 -11 42 -25 72 -32 72 -21 0 -15 21 20 60 30 36 67 52 67 31z m1653
-8 c-7 -2 -19 -2 -25 0 -7 3 -2 5 12 5 14 0 19 -2 13 -5z m-575 -20 c-6 -7
-14 -13 -19 -13 -5 0 -9 6 -9 13 0 7 9 13 19 13 15 0 17 -3 9 -13z m-1655
-384 c31 -127 92 -265 188 -425 113 -188 331 -346 520 -375 44 -7 139 -9 239
-6 179 5 250 19 377 77 78 35 94 33 30 -4 -183 -108 -522 -138 -742 -66 -186
61 -413 268 -514 469 -49 95 -111 272 -126 356 -16 94 -19 226 -7 315 6 44 8
23 13 -110 4 -95 13 -193 22 -231z m137 356 c0 -12 7 -25 15 -29 8 -3 12 -12
9 -21 -10 -24 -18 -18 -32 25 -15 48 -15 63 -2 55 6 -3 10 -17 10 -30z m850
25 c0 -5 12 -12 28 -16 96 -21 169 -49 189 -72 l21 -25 -44 -30 c-25 -16 -52
-43 -60 -59 l-16 -30 -81 78 c-112 107 -110 104 -90 126 9 10 12 18 7 19 -5 0
0 4 11 9 27 12 35 12 35 0z m624 1 c4 -5 -1 -8 -9 -7 -21 3 -31 16 -12 16 9 0
18 -4 21 -9z m-2102 -18 c-40 -2 -103 -2 -140 0 -37 2 -4 3 73 3 77 0 107 -2
67 -3z m211 0 c-18 -2 -48 -2 -65 0 -18 2 -4 4 32 4 36 0 50 -2 33 -4z m941
-19 c4 -15 2 -32 -5 -40 -8 -9 -8 -14 -1 -14 6 0 19 -13 29 -30 14 -24 24 -30
51 -30 27 0 47 -12 108 -67 70 -62 74 -69 73 -107 0 -23 -4 -50 -9 -61 l-8
-20 -8 20 c-4 11 -14 24 -21 28 -9 6 -12 19 -8 40 5 29 1 36 -47 77 -33 29
-65 47 -87 50 -27 4 -41 14 -62 45 -32 47 -54 108 -45 124 12 20 34 12 40 -15z
m317 -106 c88 -84 118 -118 104 -118 -11 0 -27 -5 -35 -11 -11 -8 -6 -9 22 -7
31 3 38 0 42 -18 9 -35 -8 -68 -50 -95 -61 -40 -71 -41 -94 -12 -14 18 -20 40
-20 72 1 45 -1 48 -87 128 -76 72 -93 82 -124 83 -33 0 -37 3 -42 33 -3 17 -8
40 -12 50 -12 29 13 19 30 -13 12 -23 22 -30 46 -30 23 0 34 7 50 35 14 23 25
32 34 27 6 -4 68 -60 136 -124z m1192 115 c-7 -2 -21 -2 -30 0 -10 3 -4 5 12
5 17 0 24 -2 18 -5z m-2093 -12 c0 -5 -7 -11 -15 -15 -9 -3 -15 0 -15 9 0 8 7
15 15 15 8 0 15 -4 15 -9z m1440 -16 c0 -12 -26 -63 -43 -81 -18 -22 -18 -22
40 -49 32 -14 72 -28 88 -31 17 -2 23 -2 15 2 -8 3 -39 15 -67 26 -29 11 -53
25 -53 30 0 8 18 47 26 57 1 2 35 -9 74 -25 55 -21 69 -31 64 -43 -3 -9 -9
-22 -12 -30 -3 -9 -1 -12 6 -8 6 4 18 30 27 57 13 39 21 50 33 46 10 -3 34 -8
55 -12 l37 -6 0 -85 c0 -77 -2 -85 -17 -80 -10 3 -52 14 -93 26 -41 11 -115
34 -164 51 -50 16 -98 30 -109 30 -11 0 -16 5 -13 13 3 6 9 20 12 30 4 9 9 17
13 17 4 0 15 16 25 35 11 21 27 35 38 35 10 0 18 -2 18 -5z m803 -7 c64 -1
117 -5 117 -9 0 -4 -59 -6 -132 -5 -101 1 -132 4 -136 15 -3 9 1 11 14 7 11
-3 72 -6 137 -8z m-703 -9 c44 -9 50 -14 50 -36 0 -20 -4 -24 -17 -18 -10 4
-29 11 -43 15 -58 18 -81 31 -75 40 8 13 22 13 85 -1z m-1548 -14 c0 -5 -5
-11 -11 -13 -6 -2 -11 4 -11 13 0 9 5 15 11 13 6 -2 11 -8 11 -13z m425 -12
c0 -16 3 -43 8 -60 13 -57 -11 -36 -27 23 -13 46 -13 54 -2 50 8 -3 14 -1 14
4 0 6 2 10 4 10 2 0 3 -12 3 -27z m123 4 c0 -7 16 -37 35 -66 30 -45 32 -51
13 -39 -12 8 -30 26 -40 39 -22 29 -37 96 -20 85 7 -4 12 -13 12 -19z m1887
17 c-3 -3 -12 -4 -19 -1 -8 3 -5 6 6 6 11 1 17 -2 13 -5z m-2389 -28 c-7 -8
-15 -12 -17 -11 -5 6 10 25 20 25 5 0 4 -6 -3 -14z m344 -43 c18 -62 17 -69
-8 -59 -12 5 -14 9 -5 20 12 15 1 59 -19 71 -10 6 -5 25 8 25 4 0 15 -26 24
-57z m-582 25 c0 -13 -217 -11 -315 2 -42 5 -5 7 127 6 104 0 188 -4 188 -8z
m190 2 c0 -5 -7 -10 -15 -10 -8 0 -15 5 -15 10 0 6 7 10 15 10 8 0 15 -4 15
-10z m2265 -10 c116 -8 115 -9 -45 -4 -91 2 -175 4 -188 4 -13 0 -21 4 -17 10
3 5 33 7 68 4 34 -3 116 -9 182 -14z m-3012 -7 c-13 -2 -35 -2 -50 0 -16 2 -5
4 22 4 28 0 40 -2 28 -4z m587 -35 c0 -24 -4 -38 -8 -32 -4 7 -18 14 -32 17
-25 4 -25 4 3 6 22 1 27 6 27 26 0 14 2 25 5 25 3 0 5 -19 5 -42z m1385 0 c16
-25 21 -37 11 -29 -16 14 -51 71 -43 71 3 0 17 -19 32 -42z m662 -10 c-2 -13
-4 -5 -4 17 -1 22 1 32 4 23 2 -10 2 -28 0 -40z m-693 4 c21 -46 13 -73 -37
-125 -31 -33 -67 -52 -52 -27 3 6 -1 13 -10 16 -9 4 -22 21 -29 38 -18 42 -7
63 58 114 39 30 50 28 70 -16z m-1188 20 c6 -4 16 -57 22 -118 12 -118 34
-185 74 -222 14 -12 58 -36 99 -52 41 -16 65 -30 54 -31 -11 -1 -5 -4 14 -8
23 -4 37 -13 42 -28 7 -19 5 -23 -11 -23 -11 0 -20 6 -20 14 0 8 -12 17 -27
21 -54 13 -138 59 -180 98 -52 48 -81 129 -92 260 -8 99 -5 109 25 89z m2283
-16 c-11 -9 -69 -14 -69 -6 0 6 17 10 37 10 20 0 34 -2 32 -4z m259 -3 c-21
-2 -57 -2 -80 0 -24 2 -7 4 37 4 44 0 63 -2 43 -4z m-1188 -35 c-1 -7 -21 -35
-45 -61 -38 -41 -45 -45 -45 -27 0 11 14 39 32 61 31 38 58 51 58 27z m-1630
-10 c58 -2 108 -7 112 -13 4 -5 8 -37 8 -70 0 -33 7 -91 15 -128 20 -94 107
-306 154 -376 49 -71 213 -237 286 -286 l54 -38 -30 -38 c-17 -21 -35 -41 -40
-44 -29 -19 9 -85 48 -85 16 0 73 87 73 111 0 9 -10 24 -22 33 -13 9 15 -4 62
-28 151 -80 357 -111 545 -82 187 28 358 96 490 196 48 36 71 48 78 41 6 -6
16 -11 21 -11 6 0 3 6 -6 14 -16 12 -14 16 23 52 22 21 63 69 91 106 56 76 75
92 28 24 -36 -53 -36 -56 -9 -56 33 0 58 18 79 60 21 41 37 48 102 41 46 -4
40 -21 -7 -21 -39 0 -49 -9 -96 -81 -22 -34 -35 -48 -37 -37 -4 19 -70 34 -84
20 -14 -14 0 -33 20 -31 39 3 52 -2 52 -20 0 -15 -6 -19 -27 -18 -22 2 -31 -6
-51 -41 -23 -41 -23 -44 -7 -62 15 -16 15 -21 2 -42 -8 -12 -40 -67 -71 -121
-31 -54 -62 -95 -67 -91 -7 4 -5 12 4 22 8 10 27 40 42 69 l28 52 -27 36 c-15
19 -22 35 -17 35 6 0 11 -5 11 -11 0 -5 4 -8 9 -4 6 3 15 -3 20 -12 10 -17 12
-17 26 1 19 25 19 45 1 52 -8 3 -13 11 -10 18 5 13 -35 36 -63 36 -10 0 -14
-6 -10 -20 6 -22 -8 -28 -16 -7 -3 9 -9 8 -21 -3 -15 -15 -15 -18 3 -36 10
-11 24 -30 30 -42 7 -13 16 -20 20 -17 13 7 23 -27 12 -38 -11 -11 -34 0 -26
13 8 13 -60 99 -72 91 -16 -10 -21 -34 -12 -58 13 -36 -5 -27 -20 10 -10 23
-15 27 -18 15 -5 -19 46 -153 82 -213 23 -40 23 -41 5 -65 -10 -13 -17 -27
-14 -31 2 -4 -13 -39 -33 -79 -21 -40 -39 -68 -41 -62 -2 6 4 25 13 42 9 18
23 49 30 70 12 35 12 39 -9 59 -15 14 -41 22 -86 27 -88 8 -88 14 -3 14 77 0
82 5 50 50 -26 37 -21 43 11 12 32 -31 47 -62 30 -62 -7 0 -6 -5 2 -15 16 -19
29 -19 36 0 4 9 -10 37 -34 68 -22 28 -49 76 -59 106 -21 61 -49 86 -33 30 13
-43 3 -51 -11 -10 -7 21 -15 29 -21 23 -6 -6 -6 -18 2 -32 7 -13 16 -36 21
-52 6 -24 6 -28 -5 -19 -7 6 -18 29 -25 51 -6 22 -16 40 -22 40 -6 0 -8 -9 -4
-20 5 -14 2 -20 -9 -20 -9 0 -16 5 -16 10 0 14 -13 13 -34 -3 -15 -11 -16 -19
-6 -62 6 -28 25 -85 42 -128 20 -52 27 -82 21 -88 -12 -12 -78 154 -88 223 -9
63 -25 52 -25 -17 0 -56 22 -124 65 -206 25 -47 32 -79 17 -79 -21 0 -102 227
-102 285 0 35 -4 45 -16 45 -53 0 66 -332 165 -459 14 -18 34 -44 44 -57 29
-38 1 -28 -39 14 -37 39 -85 115 -121 192 -40 86 -83 230 -83 276 0 16 -5 24
-12 21 -8 -2 -13 -22 -12 -50 0 -26 -3 -47 -7 -47 -12 0 -21 40 -15 66 5 17 2
24 -8 24 -9 0 -12 -7 -9 -21 6 -20 5 -21 -18 -6 -19 13 -39 14 -100 9 -42 -4
-89 -4 -104 0 -39 10 -45 4 -45 -53 0 -28 -5 -49 -11 -49 -7 0 -8 18 -4 55 10
76 -10 72 -23 -5 -14 -80 -72 -211 -122 -274 -22 -28 -72 -86 -112 -129 -56
-59 -76 -75 -87 -68 -12 8 -2 23 47 75 85 91 134 160 186 261 44 85 74 180 62
193 -10 10 -25 -18 -32 -61 -4 -23 -12 -37 -21 -37 -9 0 -12 7 -9 18 14 48 18
92 7 92 -6 0 -11 -6 -11 -13 0 -32 -42 -144 -64 -172 -37 -46 -41 -23 -6 38
38 68 57 125 35 107 -8 -7 -15 -17 -15 -21 0 -5 -18 -38 -40 -73 -39 -61 -52
-109 -29 -103 6 1 14 -11 16 -28 2 -16 9 -33 15 -36 7 -4 6 -9 -2 -14 -6 -4
-12 -5 -13 -4 -1 2 -15 30 -30 62 l-27 58 56 105 c31 58 53 108 49 112 -4 4
-9 3 -11 -3 -2 -5 -31 -54 -64 -109 -48 -80 -57 -102 -49 -118 5 -10 7 -23 3
-29 -3 -6 5 -23 19 -37 28 -31 51 -71 44 -79 -13 -13 -44 9 -44 31 0 13 -15
45 -33 72 l-33 48 22 40 c77 137 102 188 96 194 -8 9 -18 -6 -73 -105 -23 -43
-51 -89 -62 -103 l-20 -25 9 32 c5 18 20 47 34 65 34 46 79 137 74 151 -2 7
-22 -23 -43 -65 l-38 -78 -73 0 c-39 0 -75 -4 -78 -10 -3 -5 24 -63 61 -129
36 -66 64 -126 61 -133 -2 -7 -20 19 -40 58 -19 38 -58 110 -86 158 -28 49
-48 92 -45 97 8 13 37 10 58 -6 12 -9 42 -15 77 -15 l58 0 30 64 c33 68 37 81
21 71 -5 -3 -10 -2 -10 3 0 6 -7 12 -15 16 -11 4 -23 -10 -42 -49 -15 -30 -33
-55 -40 -55 -7 0 -13 -4 -13 -10 0 -5 9 -10 20 -10 14 0 27 15 45 50 14 28 30
50 35 50 13 0 13 -1 -9 -52 -26 -61 -42 -72 -97 -63 -91 13 -114 87 -49 162
56 66 44 71 -36 17 -30 -20 -61 -33 -71 -31 -20 6 -23 -4 -7 -20 6 -6 14 -26
19 -44 4 -19 11 -43 15 -54 5 -12 4 -17 -1 -12 -24 21 -214 380 -214 405 0 21
-31 62 -47 62 -11 0 -10 -6 5 -27 11 -16 28 -54 40 -86 18 -52 73 -156 167
-317 18 -30 50 -89 71 -130 20 -41 50 -93 64 -115 50 -74 71 -122 56 -128 -9
-4 -20 9 -32 35 -10 23 -23 46 -29 52 -5 6 -39 67 -74 136 -64 127 -91 172
-91 155 0 -5 -6 0 -14 10 -8 11 -12 23 -9 28 3 6 -88 188 -104 206 -2 3 -8 0
-14 -6 -12 -12 14 -65 48 -98 8 -8 16 -30 18 -48 1 -18 17 -59 35 -91 18 -31
30 -59 27 -62 -3 -3 -26 34 -52 83 -26 48 -65 119 -86 156 -41 72 -49 98 -25
78 11 -9 15 -4 19 26 4 20 4 39 2 41 -2 3 -26 -13 -52 -34 -26 -22 -84 -66
-128 -99 -44 -33 -113 -88 -153 -122 -40 -35 -76 -63 -80 -63 -4 1 -18 7 -31
14 -23 13 -23 14 45 62 38 26 95 68 127 92 32 24 65 45 73 46 19 3 99 65 146
113 36 37 37 40 22 61 -8 12 -20 20 -25 17 -5 -4 -9 -4 -9 -1 0 3 18 15 39 26
22 11 42 23 45 28 2 4 -8 35 -24 67 -16 33 -30 66 -30 73 0 15 -12 16 -26 2
-12 -12 -44 -3 -44 11 0 5 9 14 20 21 21 14 25 34 11 57 -9 15 -32 3 -103 -53
-21 -16 -40 -27 -43 -24 -3 3 12 17 32 31 62 43 109 87 92 87 -18 0 -54 -23
-96 -63 l-33 -31 -62 22 -63 21 70 -5 c63 -5 73 -3 90 16 10 11 34 30 52 41
32 20 43 39 24 39 -5 0 -30 -16 -55 -35 -43 -33 -76 -45 -76 -27 0 4 17 17 38
30 62 39 95 69 88 81 -6 10 -70 -33 -136 -91 -15 -14 -48 -9 -165 25 l-40 12
44 3 c24 2 51 0 60 -4 56 -25 109 -7 191 65 54 47 49 64 -6 20 -58 -47 -97
-61 -131 -48 -15 5 -30 14 -33 19 -3 5 -29 3 -59 -5 -52 -13 -55 -13 -86 10
-17 14 -35 22 -38 18 -4 -3 -16 2 -26 11 -18 17 -19 17 -24 -1 -4 -14 -5 -13
-6 6 -1 15 -6 21 -14 18 -8 -3 -20 -1 -28 4 -9 5 39 9 124 9 75 0 137 -3 137
-7 0 -5 25 -21 55 -37 52 -27 56 -28 77 -12 13 9 38 26 55 39 18 12 33 28 33
35 0 8 -22 -4 -51 -27 -29 -23 -59 -41 -68 -41 -13 1 -12 3 4 15 64 47 115 91
115 97 0 16 -16 7 -65 -33 -60 -50 -82 -62 -97 -53 -6 4 -1 11 14 18 42 19
147 110 147 129 1 27 -15 20 -72 -31 l-54 -49 -176 -2 c-101 -1 -178 3 -181 8
-4 6 62 11 165 13 l170 3 29 35 c16 19 30 39 30 44 0 5 -106 6 -257 2 -142 -4
-254 -4 -250 0 7 8 334 23 367 18 8 -1 62 -4 120 -6z m767 -14 c25 -14 43 -27
41 -28 -8 -6 -98 7 -98 15 0 5 15 6 33 4 l32 -5 -32 15 c-18 8 -33 17 -33 20
0 10 14 5 57 -21z m773 12 c0 -2 -16 -23 -35 -46 -19 -23 -35 -49 -35 -59 0
-9 -7 -27 -16 -40 -13 -17 -19 -20 -25 -10 -4 8 0 24 12 40 10 15 19 30 19 34
0 10 63 85 72 85 4 0 8 -2 8 -4z m186 -43 l3 -38 -15 33 c-8 18 -12 38 -8 43
10 16 16 3 20 -38z m381 0 c-3 -10 -5 -2 -5 17 0 19 2 27 5 18 2 -10 2 -26 0
-35z m-1417 27 c0 -16 109 -192 138 -223 15 -15 48 -42 75 -59 69 -44 52 -45
-23 -1 -39 23 -72 52 -87 76 -43 69 -114 162 -136 179 -19 15 -20 19 -7 28 20
13 40 13 40 0z m294 -21 c23 -27 35 -69 20 -69 -26 0 -74 61 -74 95 0 16 32 1
54 -26z m691 21 c-3 -5 -11 -10 -16 -10 -6 0 -7 5 -4 10 3 6 11 10 16 10 6 0
7 -4 4 -10z m95 -21 c12 -22 7 -49 -9 -49 -5 0 -11 16 -13 35 -4 39 6 46 22
14z m1073 14 c-40 -2 -106 -2 -145 0 -40 1 -8 3 72 3 80 0 112 -2 73 -3z
m-2965 -20 c-10 -2 -26 -2 -35 0 -10 3 -2 5 17 5 19 0 27 -2 18 -5z m1953 -9
c14 -13 15 -21 6 -50 -8 -25 -15 -33 -26 -29 -13 5 -14 4 -3 -6 10 -11 4 -22
-30 -56 l-43 -44 -3 -137 c-5 -191 -22 -195 -22 -4 l0 151 46 52 c42 47 45 56
42 95 -3 47 5 54 33 28z m-972 -49 c1 -11 8 -32 15 -47 8 -16 11 -28 6 -28
-15 0 -28 32 -34 85 -4 35 -3 44 3 30 5 -11 10 -29 10 -40z m-279 40 c0 -2
-20 -18 -45 -35 -48 -33 -54 -52 -29 -88 20 -30 60 -49 109 -53 33 -3 41 -8
45 -29 3 -14 12 -25 19 -25 8 0 16 -6 19 -12 6 -21 -13 -15 -38 12 -15 15 -39
27 -69 31 -63 9 -121 66 -121 118 0 32 4 38 48 60 47 25 62 30 62 21z m250
-36 c0 -57 25 -94 88 -133 33 -20 65 -36 71 -36 7 0 9 -4 6 -10 -16 -26 -149
72 -171 127 -16 38 -19 97 -4 88 6 -3 10 -20 10 -36z m220 19 c0 -13 -23 -5
-28 10 -2 7 2 10 12 6 9 -3 16 -11 16 -16z m1273 15 c-13 -2 -33 -2 -45 0 -13
2 -3 4 22 4 25 0 35 -2 23 -4z m537 -4 c0 -5 -102 -9 -247 -8 -137 1 -234 5
-218 9 44 11 465 10 465 -1z m-3312 -31 l37 -1 -37 -4 -38 -4 0 -125 c0 -109
2 -124 17 -124 9 0 14 -3 10 -6 -3 -3 -14 -3 -25 0 -22 7 -36 46 -23 59 5 5 7
26 4 47 -6 42 8 206 14 178 3 -13 15 -18 41 -20z m1246 -19 c17 -64 47 -102
122 -151 36 -24 60 -44 54 -46 -5 -2 -39 17 -75 42 -49 35 -74 63 -105 114
-43 74 -49 95 -24 90 10 -2 21 -21 28 -49z m1083 3 c-2 -44 -6 -51 -39 -75
-44 -31 -49 -28 -13 7 14 14 30 45 37 70 7 25 13 46 14 46 1 0 1 -22 1 -48z
m66 11 c-13 -82 -17 -86 -94 -129 l-74 -41 3 -52 c3 -41 1 -51 -12 -51 -12 0
-16 10 -16 43 0 62 18 86 92 125 l67 34 7 54 c4 35 11 54 20 54 9 0 11 -10 7
-37z m-343 23 c0 -2 -8 -10 -17 -17 -16 -13 -17 -12 -4 4 13 16 21 21 21 13z
m-581 -65 l77 -59 29 21 c28 19 27 17 -6 -19 -20 -21 -39 -46 -42 -54 -4 -12
-6 -12 -6 2 -1 9 4 20 9 23 16 10 4 22 -76 75 -41 28 -74 55 -74 60 0 17 9 12
89 -49z m701 52 c0 -5 -9 -21 -20 -38 -18 -27 -20 -28 -20 -8 0 32 10 53 26
53 8 0 14 -3 14 -7z m377 -25 c-3 -7 -5 -2 -5 12 0 14 2 19 5 13 2 -7 2 -19 0
-25z m132 11 c-10 -6 -5 -11 14 -18 45 -17 62 -10 37 15 -7 7 0 9 22 6 18 -3
27 -7 21 -9 -7 -3 -13 -11 -13 -19 0 -8 -9 -14 -20 -14 -11 0 -20 -4 -20 -8 0
-16 96 -101 120 -105 23 -4 22 -4 -5 -6 -24 -1 -44 12 -103 68 -40 39 -70 61
-67 50 4 -13 2 -19 -9 -19 -9 0 -16 -7 -16 -17 0 -9 -2 -14 -5 -11 -3 2 1 27
7 55 10 41 15 49 31 45 14 -4 15 -7 6 -13z m-2752 5 c-3 -3 -12 -4 -19 -1 -8
3 -5 6 6 6 11 1 17 -2 13 -5z m1572 -16 c5 -13 7 -25 5 -27 -7 -7 -34 21 -34
35 0 22 20 16 29 -8z m295 -25 c-20 -27 -89 -73 -109 -73 -5 1 7 11 27 24 55
33 78 57 78 80 0 15 3 17 12 8 9 -9 7 -18 -8 -39z m426 33 c0 -8 -18 -36 -41
-62 l-40 -49 1 -115 c4 -217 17 -186 -112 -271 -62 -41 -122 -85 -133 -99 -51
-63 -63 -70 -26 -15 30 45 63 77 132 125 141 100 129 77 129 249 l0 149 33 50
c31 49 57 66 57 38z m-1207 -17 c-8 -8 -13 -7 -18 2 -5 8 -4 10 3 5 7 -4 12
-2 12 5 0 7 3 9 7 6 4 -4 2 -12 -4 -18z m1477 -80 c-11 -39 -43 -109 -71 -157
-27 -47 -49 -90 -49 -95 0 -5 -6 -4 -14 3 -17 13 -11 40 9 40 30 0 132 220
136 294 1 17 2 18 6 3 3 -10 -5 -50 -17 -88z m828 86 c8 -8 -388 -4 -448 5
-32 5 47 6 194 4 137 -2 251 -6 254 -9z m-2408 -25 c0 -17 7 -44 15 -59 15
-29 86 -71 120 -71 10 0 27 -7 37 -17 15 -13 18 -33 19 -117 1 -188 4 -195
100 -292 54 -55 91 -84 106 -84 12 0 25 -5 29 -11 4 -8 9 -7 15 2 6 11 19 8
62 -13 72 -35 202 -71 230 -62 12 3 53 22 90 40 72 36 87 40 87 24 0 -5 -4
-10 -10 -10 -5 0 -37 -13 -70 -29 -103 -50 -119 -53 -211 -41 -46 7 -106 13
-134 15 -99 5 -219 63 -340 162 -96 79 -153 154 -229 303 l-70 135 52 -45 c46
-40 51 -49 52 -86 0 -30 10 -57 39 -101 104 -161 281 -297 435 -333 44 -11
103 -25 129 -31 70 -16 67 -6 -8 23 -36 15 -63 22 -59 17 3 -5 -4 -9 -15 -9
-23 0 -28 15 -8 23 9 4 9 6 0 6 -6 1 -14 -3 -17 -8 -4 -5 -23 -5 -46 1 -31 8
-62 32 -135 105 -107 106 -100 86 -95 276 2 94 -13 137 -48 137 -9 0 -41 11
-69 25 -51 23 -67 43 -87 108 -4 13 -12 16 -33 12 -26 -6 -25 -5 7 14 49 28
60 26 60 -9z m1100 -7 c-11 -17 -11 -17 -6 0 3 10 6 24 7 30 0 9 2 9 5 0 3 -7
0 -20 -6 -30z m-1626 6 c-8 -14 -34 -10 -34 5 0 9 7 12 20 9 11 -3 17 -9 14
-14z m751 -45 c34 -50 43 -69 34 -75 -18 -11 -32 0 -24 19 3 9 3 13 -1 9 -10
-10 -44 23 -44 42 0 9 -7 26 -15 37 -12 18 -11 34 1 34 1 0 23 -30 49 -66z
m-310 -7 c27 -55 34 -63 65 -68 19 -4 54 -16 77 -28 23 -11 48 -21 56 -21 15
0 43 -27 35 -35 -5 -5 -92 26 -165 60 -56 26 -74 47 -97 113 -22 63 -5 51 29
-21z m1115 44 c0 -7 -96 -86 -127 -105 -31 -17 -8 3 52 49 36 27 65 52 65 57
0 4 2 8 5 8 3 0 5 -4 5 -9z m101 -43 c-4 -65 -39 -120 -96 -154 -58 -33 -76
-56 -82 -101 -5 -38 -5 -38 54 -68 77 -39 81 -40 61 -20 -15 17 -13 19 35 44
45 22 52 31 55 59 3 25 8 32 24 32 18 0 20 -4 15 -36 -7 -42 -28 -69 -77 -95
-19 -11 -42 -24 -50 -30 -12 -9 -29 -3 -78 26 l-62 37 0 52 c0 63 4 68 63 96
26 12 65 43 87 69 32 37 40 54 40 87 0 32 6 54 14 54 1 0 -1 -23 -3 -52z
m-1041 32 c0 -5 -5 -10 -11 -10 -5 0 -7 5 -4 10 3 6 8 10 11 10 2 0 4 -4 4
-10z m2005 0 c-110 -3 -206 -7 -214 -10 -7 -3 -16 1 -18 8 -4 9 43 12 214 10
l218 -2 -200 -6z m-1195 -15 c-7 -9 -32 -30 -54 -47 -35 -26 -34 -24 9 15 52
48 67 58 45 32z m302 -95 c-3 -101 -5 -110 -23 -110 -23 0 -25 24 -4 73 8 20
15 61 15 92 0 30 3 55 8 55 4 0 6 -49 4 -110z m1209 -42 c2 -184 -1 -251 -9
-260 -4 -4 -6 83 -4 192 2 136 0 200 -7 200 -6 0 -11 5 -11 10 0 6 7 10 15 10
13 0 15 -24 16 -152z m-1335 114 c-17 -16 -18 -16 -5 5 7 12 15 20 18 17 3 -2
-3 -12 -13 -22z m94 12 c0 -8 -4 -12 -10 -9 -5 3 -10 10 -10 16 0 5 5 9 10 9
6 0 10 -7 10 -16z m-1966 -45 c-3 -5 -14 -14 -25 -19 -17 -10 -19 -7 -19 31
l0 42 25 -23 c13 -12 22 -27 19 -31z m1348 18 c10 9 20 14 23 12 2 -3 7 -68
11 -145 5 -99 3 -146 -5 -162 -10 -18 -6 -26 30 -62 43 -43 76 -50 124 -28 33
15 35 25 38 193 3 131 3 130 3 -22 -1 -89 0 -161 1 -160 1 1 15 19 32 41 17
21 31 34 31 29 0 -14 -81 -105 -88 -99 -2 3 -16 -1 -31 -8 -36 -19 -74 -2
-125 54 l-38 42 4 109 c3 98 2 107 -13 93 -8 -8 -22 -14 -30 -14 -10 1 -8 4 4
11 20 12 47 67 47 96 0 16 -1 16 -13 0 -11 -16 -16 -15 -64 10 -29 16 -53 31
-53 35 0 4 21 -4 47 -17 43 -24 47 -24 65 -8z m177 -5 c17 -25 20 -46 22 -171
2 -159 -3 -174 -61 -174 -33 0 -75 32 -52 40 9 3 12 40 12 138 0 109 3 139 18
164 21 38 35 39 61 3z m1093 -3 l33 -30 -42 27 c-24 15 -43 28 -43 30 0 12 24
0 52 -27z m-2524 -17 c-11 -2 -26 -1 -35 2 -12 5 -13 9 -3 21 10 13 15 12 35
-3 22 -16 22 -17 3 -20z m1472 -6 c0 -12 -5 -7 -19 24 -11 24 -11 24 3 6 9
-11 16 -24 16 -30z m954 22 c-4 -6 1 -8 15 -3 16 5 33 -2 64 -27 59 -48 64
-50 87 -38 11 6 40 14 65 19 l45 8 0 -48 c0 -47 -1 -49 -27 -49 -16 0 -38 -3
-50 -6 -14 -4 -23 -2 -23 5 0 6 15 11 34 11 26 0 35 5 39 22 4 12 5 24 3 26
-2 1 -24 -2 -49 -9 -44 -11 -48 -10 -105 25 -61 38 -112 50 -119 29 -3 -9 7
-13 31 -13 36 0 120 -49 114 -67 -4 -11 -18 -6 -56 24 -27 20 -39 24 -72 18
-22 -4 -40 -5 -40 -3 0 21 34 97 41 92 5 -3 6 -10 3 -16z m-1551 5 c-7 -2 -21
-2 -30 0 -10 3 -4 5 12 5 17 0 24 -2 18 -5z m997 -3 c0 -5 -4 -10 -10 -10 -5
0 -10 5 -10 10 0 6 5 10 10 10 6 0 10 -4 10 -10z m803 3 c-7 -2 -21 -2 -30 0
-10 3 -4 5 12 5 17 0 24 -2 18 -5z m165 0 c-15 -2 -42 -2 -60 0 -18 2 -6 4 27
4 33 0 48 -2 33 -4z m-1264 -28 c-29 -22 -42 -17 -15 6 13 11 26 17 29 14 3
-3 -3 -12 -14 -20z m-1634 -47 c0 -48 -22 -78 -57 -78 -21 0 -23 4 -23 45 0
40 4 47 32 65 17 10 35 17 40 14 4 -3 8 -24 8 -46z m1101 26 c7 -8 31 -25 53
-36 58 -29 75 -46 82 -83 9 -48 -10 -74 -74 -102 -69 -30 -112 -69 -112 -101
0 -15 21 -48 56 -88 72 -82 61 -99 -13 -19 -43 47 -49 51 -28 20 l27 -40 -30
35 c-16 19 -28 39 -25 46 2 6 -6 14 -17 17 -24 6 -22 30 6 75 21 32 93 82 119
82 74 0 79 109 7 139 -32 13 -93 71 -75 71 6 0 16 -7 24 -16z m829 10 c0 -3
-11 -22 -25 -42 -29 -43 -31 -54 -9 -45 14 5 16 2 10 -23 -10 -38 -8 -37 -49
-18 l-35 17 39 39 c21 22 41 48 44 59 6 17 25 28 25 13z m421 -21 c-12 -20
-14 -14 -5 12 4 9 9 14 11 11 3 -2 0 -13 -6 -23z m637 -50 c3 -81 -2 -86 -55
-54 -17 11 -51 25 -75 32 -51 15 -58 23 -58 67 l0 33 93 -3 92 -3 3 -72z
m-2912 39 c-4 -3 -14 2 -24 12 -16 18 -16 18 6 6 13 -6 21 -14 18 -18z m-36
-12 c0 -4 -7 -10 -15 -14 -11 -4 -15 2 -15 21 0 21 2 24 15 13 8 -7 15 -16 15
-20z m1018 18 c7 -7 12 -19 12 -27 0 -9 14 -28 31 -42 30 -24 31 -28 21 -59
-10 -28 -68 -89 -124 -128 -15 -11 -18 -11 -18 3 0 9 23 40 50 69 58 61 65 96
25 122 -26 17 -40 47 -30 64 8 13 18 13 33 -2z m309 -170 c-2 -35 -3 -7 -3 62
0 69 1 97 3 63 2 -35 2 -91 0 -125z m200 0 c-2 -35 -3 -7 -3 62 0 69 1 97 3
63 2 -35 2 -91 0 -125z m-1810 130 c-3 -8 -6 -5 -6 6 -1 11 2 17 5 13 3 -3 4
-12 1 -19z m1869 10 c4 -6 3 -8 -4 -4 -6 3 -13 -2 -15 -11 -4 -14 -5 -13 -6 5
-1 23 13 30 25 10z m-1552 -6 c3 -5 8 -31 11 -58 7 -47 5 -52 -19 -67 l-26
-17 0 75 c0 59 3 75 14 75 8 0 17 -4 20 -8z m1084 -35 c31 -28 28 -97 -3 -97
-10 0 -12 10 -8 36 5 30 1 40 -28 71 -30 31 -31 34 -9 23 14 -7 35 -22 48 -33z
m1075 12 c-8 -16 -17 -28 -20 -25 -6 5 23 56 31 56 3 0 -2 -14 -11 -31z m274
-8 c33 -21 64 -44 67 -50 5 -7 42 -11 97 -11 53 0 89 -4 89 -10 0 -6 -31 -10
-72 -10 -39 0 -95 -7 -124 -16 -29 -10 -60 -14 -70 -9 -29 11 -104 11 -101 0
2 -5 23 -11 48 -13 24 -2 49 -8 56 -14 9 -7 27 -4 60 8 73 28 203 19 203 -14
0 -4 -90 -6 -199 -5 l-199 2 -12 -30 c-7 -16 -17 -32 -22 -35 -5 -3 8 29 30
73 21 43 47 99 57 126 10 26 21 47 25 47 4 0 34 -18 67 -39z m-1478 -5 c38
-39 35 -49 -23 -105 l-36 -35 0 87 c0 100 7 106 59 53z m368 -88 c-2 -24 -4
-5 -4 42 0 47 2 66 4 43 2 -24 2 -62 0 -85z m1174 93 c15 -6 18 -10 8 -10 -9
-1 -25 7 -36 17 -10 9 -14 14 -8 10 6 -4 22 -12 36 -17z m-2541 -47 c0 -60 -3
-71 -36 -115 -48 -65 -64 -64 -64 4 0 46 6 63 40 115 22 34 44 62 50 62 6 0
10 -28 10 -66z m108 -44 c2 -62 -1 -107 -8 -114 -7 -7 -10 10 -10 54 0 36 -3
89 -7 119 -5 44 -3 53 8 49 11 -3 15 -30 17 -108z m2041 40 c-5 -36 -7 -77 -4
-92 4 -15 1 -29 -6 -34 -9 -5 -11 14 -6 84 5 81 13 120 22 110 1 -2 -1 -32 -6
-68z m-2422 28 c-3 -7 -5 -2 -5 12 0 14 2 19 5 13 2 -7 2 -19 0 -25z m430 26
c-3 -3 -12 -4 -19 -1 -8 3 -5 6 6 6 11 1 17 -2 13 -5z m1106 -11 c-7 -2 -19
-2 -25 0 -7 3 -2 5 12 5 14 0 19 -2 13 -5z m1577 -14 c12 -7 11 -8 -6 -9 -11
0 -29 7 -40 16 -18 14 -18 15 6 8 14 -3 32 -10 40 -15z m-2658 -27 c-6 -2 -12
-18 -12 -36 l0 -31 66 -3 67 -3 53 52 c58 57 74 53 23 -6 -48 -54 -78 -66
-164 -64 -56 1 -75 5 -75 15 0 8 5 14 10 14 6 0 10 14 10 30 0 20 -5 30 -15
30 -8 0 -15 7 -15 14 0 12 6 13 32 4 18 -6 27 -13 20 -16z m1075 22 c-3 -3
-12 -4 -19 -1 -8 3 -5 6 6 6 11 1 17 -2 13 -5z m508 -4 c3 -5 1 -10 -4 -10 -6
0 -11 5 -11 10 0 6 2 10 4 10 3 0 8 -4 11 -10z m802 4 c-3 -3 -12 -4 -19 -1
-8 3 -5 6 6 6 11 1 17 -2 13 -5z m203 -28 c0 -13 -7 -26 -15 -30 -11 -4 -15 2
-15 24 0 20 5 30 15 30 9 0 15 -9 15 -24z m40 -1 c0 -7 -7 -18 -15 -25 -13
-11 -15 -8 -15 18 0 24 4 30 15 26 8 -4 15 -12 15 -19z m-2890 11 c0 -2 -3
-11 -6 -20 -9 -23 -24 -20 -24 4 0 11 7 20 15 20 8 0 15 -2 15 -4z m1343 -3
c-7 -2 -19 -2 -25 0 -7 3 -2 5 12 5 14 0 19 -2 13 -5z m-480 -33 c7 0 4 -5 -6
-11 -27 -16 -45 4 -26 27 13 16 14 16 17 1 2 -10 9 -17 15 -17z m968 -13 c-13
-33 -18 -35 -15 -4 1 12 3 29 3 37 1 10 4 11 11 4 7 -7 8 -19 1 -37z m1166 35
c22 -3 41 -56 44 -120 1 -34 0 -64 -3 -67 -10 -11 -138 144 -138 167 0 22 4
24 43 23 23 -1 48 -3 54 -3z m-3112 -305 c0 -164 -4 -304 -8 -310 -5 -8 -7 -7
-6 3 1 8 1 43 0 78 -1 48 -6 67 -21 82 -11 11 -16 20 -12 20 4 0 13 -5 20 -12
9 -9 12 29 12 173 0 175 -1 187 -21 205 -17 16 -22 16 -29 4 -13 -20 -12 -10
1 29 9 27 16 32 38 29 l26 -3 0 -298z m1455 268 c0 -27 -4 -35 -17 -35 -15 0
-16 2 -3 10 10 6 11 10 3 10 -7 0 -13 11 -13 25 0 16 6 25 15 25 10 0 15 -11
15 -35z m-407 8 c-7 -2 -19 -2 -25 0 -7 3 -2 5 12 5 14 0 19 -2 13 -5z m787
-33 c0 -16 -4 -30 -9 -30 -5 0 -11 14 -13 30 -3 20 0 30 9 30 8 0 13 -12 13
-30z m-1584 -139 c-8 -9 -28 -24 -44 -33 l-29 -17 -25 39 -26 39 66 68 67 68
3 -74 c2 -54 -1 -78 -12 -90z m344 149 c0 -5 -5 -10 -11 -10 -5 0 -7 5 -4 10
3 6 8 10 11 10 2 0 4 -4 4 -10z m473 -21 c-11 -11 -43 -1 -43 13 0 7 5 6 14
-1 11 -9 15 -8 21 6 5 13 9 14 12 5 3 -8 1 -18 -4 -23z m947 27 c0 -3 -4 -8
-10 -11 -5 -3 -10 -1 -10 4 0 6 5 11 10 11 6 0 10 -2 10 -4z m-1065 -16 c3 -5
1 -10 -4 -10 -6 0 -11 5 -11 10 0 6 2 10 4 10 3 0 8 -4 11 -10z m2015 -35 c0
-33 -4 -45 -15 -45 -11 0 -15 12 -15 45 0 33 4 45 15 45 11 0 15 -12 15 -45z
m108 -35 l61 -67 -32 -18 c-32 -17 -33 -17 -79 11 l-47 29 -1 62 c0 55 2 61
19 56 10 -2 46 -35 79 -73z m-1678 60 c0 -5 -5 -10 -10 -10 -19 0 -89 -50
-106 -75 -15 -23 -15 -27 6 -60 12 -19 37 -48 57 -64 31 -26 38 -51 13 -51
-14 0 -120 135 -120 152 0 19 16 33 94 80 70 43 66 41 66 28z m-851 -26 c-36
-20 -48 -16 -19 5 13 11 29 17 34 14 5 -3 -2 -12 -15 -19z m1407 10 c18 -14
18 -14 -6 -3 -31 14 -36 19 -24 19 6 0 19 -7 30 -16z m1295 6 c18 -10 27 -40
12 -40 -10 0 -43 32 -43 42 0 11 7 10 31 -2z m-1781 -9 c0 -10 -35 -21 -69
-21 -14 0 -32 -7 -42 -16 -10 -9 -24 -14 -31 -12 -18 6 49 41 87 46 17 2 32 6
34 8 8 7 21 4 21 -5z m-424 -7 c16 -4 21 -13 20 -34 -1 -26 -4 -28 -31 -23
-47 9 -79 26 -83 46 -3 14 4 17 35 17 21 0 47 -3 59 -6z m1393 -16 c-43 -83
-183 -238 -274 -303 -22 -16 10 19 71 78 62 59 133 138 160 177 48 71 64 89
43 48z m-636 6 c8 -8 -27 -65 -58 -94 -35 -33 -31 -15 5 27 17 18 30 43 30 53
0 19 11 26 23 14z m891 0 c37 -14 11 -24 -61 -24 -43 0 -83 -4 -89 -8 -6 -4
-19 -22 -28 -40 -9 -18 -21 -30 -26 -27 -5 3 1 21 13 40 25 39 50 49 164 64 6
0 18 -2 27 -5z m-2320 -63 c-20 -39 -34 -40 -34 -1 0 17 5 30 10 30 6 0 10 7
10 16 0 14 2 14 15 1 13 -13 13 -19 -1 -46z m206 55 c0 -2 -13 -9 -30 -15 -16
-5 -30 -6 -30 -1 0 5 8 11 18 13 24 7 42 8 42 3z m2820 -6 c0 -5 -4 -10 -10
-10 -5 0 -10 5 -10 10 0 6 5 10 10 10 6 0 10 -4 10 -10z m-2922 -7 c-10 -2
-26 -2 -35 0 -10 3 -2 5 17 5 19 0 27 -2 18 -5z m1363 -6 c-1 -4 -1 -14 -1
-23 0 -8 -4 -13 -9 -10 -5 4 -23 -16 -40 -44 -32 -52 -121 -115 -151 -106
-130 39 -183 71 -151 91 7 3 11 -3 11 -14 0 -14 6 -21 20 -21 11 0 37 -7 56
-15 33 -13 39 -13 75 5 21 11 43 19 48 18 17 -5 71 43 97 87 14 25 31 44 36
43 5 -2 9 -7 9 -11z m922 6 c-7 -2 -19 -2 -25 0 -7 3 -2 5 12 5 14 0 19 -2 13
-5z m-1243 -80 c0 -14 -36 -5 -51 13 -13 16 -29 18 -29 4 0 -5 7 -10 15 -10
11 0 13 -7 9 -28 -7 -35 1 -42 100 -76 51 -18 88 -25 105 -21 51 13 108 59
156 126 53 74 55 74 118 42 30 -15 35 -31 12 -40 -9 -3 -34 -32 -56 -65 -44
-64 -92 -104 -183 -150 -65 -33 -83 -33 -185 -2 -31 9 -50 19 -45 24 6 6 42
-1 89 -16 l79 -25 58 28 c31 15 59 35 63 43 3 9 18 23 34 33 24 14 121 136
121 152 0 3 -13 5 -29 5 -24 0 -38 -11 -75 -58 -47 -61 -141 -122 -187 -122
-41 1 -173 66 -190 95 -11 17 -19 23 -24 15 -8 -13 42 -81 58 -79 7 1 23 -2
37 -8 14 -6 42 -18 64 -27 55 -23 68 -21 149 24 51 28 83 54 110 90 36 48 69
70 48 33 -28 -52 -88 -105 -160 -142 -86 -44 -84 -44 -186 -4 -27 11 -55 18
-61 16 -10 -3 -26 13 -106 108 l-27 33 22 11 c14 7 24 8 28 2 10 -14 71 32 63
46 -3 7 8 -4 25 -23 17 -19 31 -40 31 -47z m-900 57 c0 -5 -9 -10 -21 -10 -11
0 -17 5 -14 10 3 6 13 10 21 10 8 0 14 -4 14 -10z m714 -32 c7 -18 23 -44 36
-58 29 -33 62 -98 57 -113 -2 -7 -13 6 -25 29 -11 22 -28 47 -38 55 -10 8 -30
32 -46 53 -21 30 -25 42 -17 52 16 19 17 18 33 -18z m46 17 c0 -8 -8 -15 -17
-14 -11 0 -13 3 -5 6 6 2 10 9 6 14 -3 5 0 9 5 9 6 0 11 -7 11 -15z m-300 -62
c0 -22 -18 -14 -44 19 -18 24 -22 35 -13 40 13 8 57 -38 57 -59z m1647 61 c-3
-3 -12 -4 -19 -1 -8 3 -5 6 6 6 11 1 17 -2 13 -5z m-2819 -11 c-10 -2 -28 -2
-40 0 -13 2 -5 4 17 4 22 1 32 -1 23 -4z m3292 -29 c0 -14 -4 -22 -10 -19 -5
3 -10 17 -10 31 0 14 4 22 10 19 6 -3 10 -17 10 -31z m-2888 5 c-5 -11 -11
-20 -15 -20 -4 1 -12 1 -19 1 -6 0 -3 9 7 20 23 26 36 26 27 -1z m1284 -36
c-6 -8 -66 23 -66 34 0 8 12 4 34 -10 18 -12 33 -23 32 -24z m604 17 c-80 -69
-265 -170 -307 -169 l-28 1 28 8 c46 14 125 58 207 116 67 46 112 72 130 73 3
0 -11 -13 -30 -29z m490 9 c19 -7 16 -8 -17 -4 -23 3 -49 2 -58 -1 -13 -5 -77
-113 -80 -134 0 -3 -19 -32 -41 -65 -23 -33 -53 -84 -68 -112 -14 -29 -31 -53
-36 -53 -6 0 -9 -3 -8 -7 5 -16 -22 -75 -33 -71 -6 2 -11 7 -11 11 0 7 52 106
81 157 5 8 22 41 38 72 15 32 31 58 35 58 3 0 27 36 53 80 45 78 48 80 83 79
21 -1 48 -5 62 -10z m115 1 c3 -6 -1 -7 -9 -4 -18 7 -21 14 -7 14 6 0 13 -4
16 -10z m272 -41 c48 -29 107 -65 129 -80 l41 -28 11 22 11 22 0 -23 c1 -13
-7 -32 -18 -43 -18 -20 -19 -19 -144 53 -113 65 -126 76 -127 101 0 15 2 27 4
27 3 0 44 -23 93 -51z m116 5 c50 -56 26 -67 -44 -20 l-50 33 23 16 c13 9 26
15 29 14 3 -1 22 -21 42 -43z m197 26 c0 -5 -7 -10 -15 -10 -8 0 -15 5 -15 10
0 6 7 10 15 10 8 0 15 -4 15 -10z m-3300 -13 c0 -22 -63 -113 -68 -99 -2 7 5
23 16 35 10 12 22 34 26 50 6 27 26 38 26 14z m54 -12 l25 -25 -77 -51 c-44
-29 -68 -41 -56 -28 12 13 34 48 48 77 15 28 28 52 31 52 2 0 15 -11 29 -25z
m2606 15 c8 -5 11 -10 5 -10 -5 0 -17 5 -25 10 -8 5 -10 10 -5 10 6 0 17 -5
25 -10z m493 -16 c11 -14 16 -28 13 -31 -9 -9 -57 38 -50 48 8 14 18 10 37
-17z m-2973 7 c0 -5 -15 -14 -32 -20 l-33 -11 25 20 c27 21 40 25 40 11z m320
-5 c0 -2 -7 -7 -16 -10 -8 -3 -12 -2 -9 4 6 10 25 14 25 6z m60 -6 c0 -5 -10
-10 -22 -10 -19 0 -20 2 -8 10 19 13 30 13 30 0z m495 -10 c22 -25 15 -35 -20
-26 -16 4 -25 13 -25 26 0 26 22 26 45 0z m1828 -49 l22 -24 -27 19 c-20 14
-27 27 -26 49 1 27 1 27 5 5 3 -14 14 -36 26 -49z m-2657 24 c-4 -12 -94 -65
-110 -65 -2 0 -7 8 -9 18 -4 13 -5 12 -6 -5 -1 -15 -11 -25 -36 -33 -19 -6
-39 -9 -44 -6 -5 4 -12 0 -14 -6 -4 -8 -6 -7 -6 4 -1 23 50 57 144 95 76 31
94 30 81 -2z m58 20 c-4 -8 -10 -12 -15 -9 -11 6 -2 24 11 24 5 0 7 -7 4 -15z
m2227 -22 c-12 -20 -14 -14 -5 12 4 9 9 14 11 11 3 -2 0 -13 -6 -23z m789 17
c0 -5 -4 -10 -10 -10 -5 0 -10 5 -10 10 0 6 5 10 10 10 6 0 10 -4 10 -10z
m-2960 -4 c0 -2 -7 -7 -16 -10 -8 -3 -12 -2 -9 4 6 10 25 14 25 6z m2219 -42
c-11 -19 -18 -41 -15 -49 7 -19 -8 -19 -23 -1 -13 16 -4 44 27 78 25 30 34 8
11 -28z m-2159 28 c0 -5 -16 -13 -35 -19 -44 -14 -45 -7 -2 12 39 17 37 17 37
7z m2385 -2 c3 -6 -1 -7 -9 -4 -18 7 -21 14 -7 14 6 0 13 -4 16 -10z m362 -25
c0 -8 -4 -12 -9 -9 -5 3 -6 10 -3 15 9 13 12 11 12 -6z m-179 -33 c2 -6 -3
-10 -10 -8 -22 3 -38 17 -38 33 0 14 2 14 22 1 12 -8 24 -20 26 -26z m-274
-33 c10 8 16 9 21 1 3 -5 -1 -10 -11 -10 -13 0 -14 -3 -5 -14 7 -8 8 -17 4
-19 -12 -8 -94 63 -87 75 4 5 19 -2 35 -18 23 -22 31 -25 43 -15z m-1152 -17
c18 -3 44 5 74 22 26 14 49 24 51 22 7 -7 -89 -56 -111 -56 -31 0 -146 40
-146 51 0 5 24 -1 53 -13 28 -11 64 -23 79 -26z m-1327 12 c-16 -13 -29 -28
-28 -33 1 -5 -5 -15 -14 -23 -14 -11 -16 -11 -9 1 6 9 5 12 -5 9 -8 -3 -13
-11 -11 -17 1 -7 -1 -10 -6 -7 -13 8 -53 -24 -46 -36 4 -7 2 -8 -4 -4 -6 4
-21 2 -32 -4 -20 -11 -21 -9 -24 20 -1 9 187 118 204 119 3 0 -8 -11 -25 -25z
m-225 -2 c0 -15 -36 -42 -55 -42 -16 0 -1 39 18 48 32 15 37 14 37 -6z m2505
-2 c10 -11 16 -20 13 -20 -3 0 -15 9 -28 20 -13 11 -19 20 -13 20 5 0 18 -9
28 -20z m255 6 c0 -8 -4 -18 -10 -21 -5 -3 -10 3 -10 14 0 12 5 21 10 21 6 0
10 -6 10 -14z m70 0 c0 -11 -19 -15 -25 -6 -3 5 1 10 9 10 9 0 16 -2 16 -4z
m125 -54 c-4 -5 -75 45 -75 53 0 2 18 -8 40 -22 22 -15 38 -29 35 -31z m-2859
33 c-11 -8 -25 -15 -30 -15 -6 1 0 7 14 15 32 19 40 18 16 0z m488 0 c3 -8 1
-15 -4 -15 -6 0 -10 7 -10 15 0 8 2 15 4 15 2 0 6 -7 10 -15z m2066 -51 c14
-16 2 -9 -27 16 -29 24 -53 45 -53 47 0 8 55 -35 80 -63z m-2042 1 c-3 -3 -9
2 -12 12 -6 14 -5 15 5 6 7 -7 10 -15 7 -18z m1832 4 c0 -6 -4 -7 -10 -4 -5 3
-10 11 -10 16 0 6 5 7 10 4 6 -3 10 -11 10 -16z m146 0 c19 -22 19 -22 -3 -10
-24 12 -39 31 -25 31 5 0 17 -10 28 -21z m281 5 c-3 -3 -12 -4 -19 -1 -8 3 -5
6 6 6 11 1 17 -2 13 -5z m-2887 -48 c0 -7 -9 -21 -20 -31 -20 -18 -20 -17 -20
24 0 39 1 41 20 31 11 -6 20 -17 20 -24z m300 24 c0 -5 -2 -10 -4 -10 -3 0 -8
5 -11 10 -3 6 -1 10 4 10 6 0 11 -4 11 -10z m255 -9 c-4 -3 -10 -6 -13 -6 -4
-1 -17 -6 -28 -13 -12 -6 -25 -8 -29 -4 -5 4 -5 -1 -2 -10 3 -9 -1 -22 -9 -28
-11 -10 -14 -8 -14 9 0 19 -8 15 -62 -31 -34 -29 -94 -82 -133 -118 -53 -49
-59 -53 -25 -16 43 46 200 185 224 197 6 3 24 13 40 21 27 15 65 14 51 -1z
m1899 1 c13 -9 21 -23 18 -30 -3 -10 -11 -7 -28 9 -39 36 -30 53 10 21z m391
-2 c-3 -5 -11 -10 -16 -10 -6 0 -7 5 -4 10 3 6 11 10 16 10 6 0 7 -4 4 -10z
m-2625 -15 c-8 -9 -9 -15 -2 -15 6 0 14 5 17 10 3 6 14 10 23 9 14 0 14 -2 2
-6 -8 -4 -28 -16 -45 -28 -16 -12 -37 -26 -45 -30 -12 -7 -13 -6 -3 6 6 8 11
18 11 22 0 5 4 12 8 15 4 4 4 1 -1 -7 -5 -9 -3 -12 6 -9 8 3 14 9 14 14 0 12
15 34 22 34 3 0 0 -7 -7 -15z m2441 -2 c13 -16 12 -17 -3 -4 -17 13 -22 21
-14 21 2 0 10 -8 17 -17z m329 7 c0 -5 -5 -10 -11 -10 -5 0 -7 5 -4 10 3 6 8
10 11 10 2 0 4 -4 4 -10z m-2320 -40 c11 -21 20 -45 20 -52 0 -13 -25 29 -41
70 -14 36 -1 25 21 -18z m1735 -10 c-10 -22 -22 -40 -27 -40 -5 0 -7 -4 -3 -9
3 -5 1 -12 -5 -16 -18 -11 -11 16 17 65 32 58 44 57 18 0z m240 19 c4 -5 18
-14 31 -19 13 -5 24 -16 24 -25 0 -23 -6 -19 -58 31 -26 25 -37 41 -25 35 12
-6 25 -16 28 -22z m265 -51 c42 -40 104 -99 139 -132 34 -32 60 -60 57 -63 -5
-6 -128 98 -149 126 -7 9 -42 44 -79 79 -36 34 -61 62 -55 62 6 0 45 -33 87
-72z m-3042 55 c-10 -2 -28 -2 -40 0 -13 2 -5 4 17 4 22 1 32 -1 23 -4z m162
-13 c-46 -25 -63 -25 -25 0 17 11 37 20 45 20 8 -1 -1 -9 -20 -20z m2451 -3
c-10 -9 -11 -8 -5 6 3 10 9 15 12 12 3 -3 0 -11 -7 -18z m64 3 c3 -5 1 -10 -4
-10 -6 0 -11 5 -11 10 0 6 2 10 4 10 3 0 8 -4 11 -10z m335 -81 c0 -5 -4 -9
-10 -9 -5 0 -10 7 -10 16 0 9 -5 12 -12 8 -7 -4 -10 -4 -6 0 3 4 -8 21 -25 38
-23 22 -19 20 16 -7 26 -21 47 -41 47 -46z m-438 49 c-7 -7 -12 -8 -12 -2 0
14 12 26 19 19 2 -3 -1 -11 -7 -17z m-1417 2 c-3 -5 -11 -10 -16 -10 -6 0 -7
5 -4 10 3 6 11 10 16 10 6 0 7 -4 4 -10z m1556 -7 c13 -16 12 -17 -3 -4 -10 7
-18 15 -18 17 0 8 8 3 21 -13z m-1667 -28 c-1 -45 -11 -55 -20 -21 -4 16 -1
32 6 41 16 19 15 21 14 -20z m1256 -25 c17 -33 27 -60 23 -60 -5 0 -20 27 -35
60 -14 33 -25 60 -22 60 2 0 17 -27 34 -60z m515 9 c28 -27 43 -47 35 -43 -14
6 -97 94 -88 94 2 0 26 -23 53 -51z m211 -76 c59 -65 89 -100 65 -78 -49 46
-185 195 -178 195 2 0 53 -53 113 -117z m-161 86 c11 -17 -1 -21 -15 -4 -8 9
-8 15 -2 15 6 0 14 -5 17 -11z m-2200 -7 c-38 -33 -98 -75 -91 -64 8 14 85 72
95 72 3 0 1 -4 -4 -8z m1465 -34 c0 -14 -18 -9 -24 8 -11 28 -6 39 9 20 8 -11
15 -23 15 -28z m64 27 c3 -8 1 -15 -4 -15 -6 0 -10 7 -10 15 0 8 2 15 4 15 2
0 6 -7 10 -15z m317 -47 c-17 -29 -31 -48 -31 -42 0 16 51 106 57 100 2 -2 -9
-28 -26 -58z m-21 32 c0 -5 -4 -10 -10 -10 -5 0 -10 5 -10 10 0 6 5 10 10 10
6 0 10 -4 10 -10z m620 -75 c8 -11 15 -23 15 -27 0 -4 7 -13 15 -20 9 -7 22
-22 30 -33 8 -11 -25 18 -72 64 -48 46 -85 88 -81 94 5 9 63 -40 93 -78z
m-2601 60 c-9 -9 -23 -13 -33 -9 -14 5 -15 9 -4 15 7 5 22 9 33 9 17 0 18 -2
4 -15z m349 -10 c-3 -3 -9 2 -12 12 -6 14 -5 15 5 6 7 -7 10 -15 7 -18z m2097
-53 c-7 -7 -33 17 -57 52 -19 28 -17 27 20 -8 23 -22 40 -42 37 -44z m-1885
48 c0 -5 -7 -10 -15 -10 -8 0 -15 5 -15 10 0 6 7 10 15 10 8 0 15 -4 15 -10z
m1523 -5 c4 -8 2 -17 -3 -20 -6 -4 -10 3 -10 14 0 25 6 27 13 6z m-405 -20
c17 -38 14 -43 -8 -15 -21 27 -25 40 -12 40 5 0 14 -11 20 -25z m218 -11 c-10
-30 -44 -69 -52 -61 -5 4 3 28 16 52 23 43 49 49 36 9z m-562 -19 c57 -38 66
-52 91 -155 22 -92 50 -144 98 -186 23 -19 41 -37 39 -40 -2 -3 15 -26 38 -50
23 -25 39 -49 35 -52 -4 -4 -49 36 -100 89 -99 102 -102 107 -145 276 -13 52
-61 101 -133 137 l-52 27 37 -5 c21 -3 62 -21 92 -41z m302 20 c9 -37 0 -40
-13 -5 -6 17 -7 30 -2 30 5 0 11 -11 15 -25z m303 -8 c-7 -15 -16 -24 -20 -21
-5 3 -1 16 7 30 21 31 29 25 13 -9z m-2305 8 c3 -8 1 -15 -4 -15 -6 0 -10 7
-10 15 0 8 2 15 4 15 2 0 6 -7 10 -15z m100 -6 c-3 -5 -10 -7 -15 -3 -5 3 -7
10 -3 15 3 5 10 7 15 3 5 -3 7 -10 3 -15z m87 4 c13 -16 12 -17 -3 -4 -10 7
-18 15 -18 17 0 8 8 3 21 -13z m94 7 c3 -5 1 -10 -4 -10 -6 0 -11 5 -11 10 0
6 2 10 4 10 3 0 8 -4 11 -10z m575 -67 c0 -7 -4 -13 -9 -13 -12 0 -41 72 -33
84 5 10 41 -51 42 -71z m-780 37 c0 -5 -4 -10 -9 -10 -6 0 -13 5 -16 10 -3 6
1 10 9 10 9 0 16 -4 16 -10z m543 3 c-13 -2 -33 -2 -45 0 -13 2 -3 4 22 4 25
0 35 -2 23 -4z m-633 -13 c0 -5 -5 -10 -11 -10 -5 0 -7 5 -4 10 3 6 8 10 11
10 2 0 4 -4 4 -10z m2350 5 c0 -8 -60 -101 -60 -94 0 16 42 99 50 99 6 0 10
-2 10 -5z m-1521 -31 c6 -15 10 -29 7 -31 -2 -2 -7 5 -11 17 -5 15 -13 20 -25
17 -13 -3 -17 0 -13 9 8 22 29 16 42 -12z m-752 -9 l28 -25 -42 18 c-22 9 -39
20 -36 24 8 13 21 9 50 -17z m108 7 c-3 -3 -11 0 -18 7 -9 10 -8 11 6 5 10 -3
15 -9 12 -12z m2100 -19 c-17 -41 -68 -97 -79 -86 -11 12 -6 18 24 31 17 8 28
17 26 20 -7 11 22 72 34 72 6 0 4 -14 -5 -37z m560 -3 c21 -22 37 -40 34 -40
-3 0 -23 18 -44 40 -21 22 -37 40 -34 40 3 0 23 -18 44 -40z m101 -22 c53 -56
147 -162 223 -253 51 -61 -97 95 -184 193 -49 57 -96 102 -105 101 -25 -2 -31
0 -25 11 12 20 32 9 91 -52z m-1879 22 c-6 -16 -14 -30 -18 -30 -3 0 -5 -13
-4 -30 2 -37 -8 -39 -23 -5 -16 34 -15 45 3 45 9 0 21 11 27 25 16 35 29 31
15 -5z m1736 6 c9 -10 17 -21 17 -23 0 -7 -37 16 -50 32 -20 24 10 16 33 -9z
m-780 -48 c9 -27 14 -48 11 -48 -7 0 -44 83 -44 100 0 24 16 -2 33 -52z
m-1973 42 c13 -9 13 -10 0 -10 -8 0 -22 5 -30 10 -13 9 -13 10 0 10 8 0 22 -5
30 -10z m150 1 c0 -5 -7 -12 -16 -15 -14 -5 -15 -4 -4 9 14 17 20 19 20 6z
m-99 -55 c-52 -52 -66 -58 -96 -36 -5 5 -19 10 -30 14 -11 3 -6 3 10 0 48 -8
78 -5 93 10 12 12 11 15 -7 21 -11 3 -21 11 -21 17 0 5 7 7 15 4 8 -3 21 -8
28 -11 7 -3 22 3 32 15 10 11 21 20 24 20 3 0 -19 -24 -48 -54z m109 -23 c-41
-43 -76 -79 -77 -82 -2 -2 -5 -2 -7 0 -5 5 142 159 152 159 3 0 -27 -35 -68
-77z m2489 56 c-16 -10 -23 -4 -14 10 3 6 11 8 17 5 6 -4 5 -9 -3 -15z m284
-111 c-6 -11 -33 -10 -33 1 0 5 -7 17 -16 25 -8 9 -17 25 -19 37 -3 12 -12 32
-22 43 -10 12 7 -6 38 -39 31 -33 55 -63 52 -67z m-2954 106 c13 -11 -8 -10
-34 2 l-30 13 30 -6 c17 -3 32 -7 34 -9z m791 -5 c0 -6 -4 -7 -10 -4 -5 3 -10
11 -10 16 0 6 5 7 10 4 6 -3 10 -11 10 -16z m-330 4 c-14 -2 -37 -9 -52 -14
-15 -6 -33 -7 -40 -3 -14 10 34 21 87 21 25 0 26 0 5 -4z m1850 -18 c11 -13
10 -14 -4 -9 -9 3 -16 10 -16 15 0 13 6 11 20 -6z m505 6 c-3 -2 0 -10 5 -16
8 -9 3 -13 -17 -13 -16 0 -32 2 -36 5 -13 8 13 32 33 30 11 -1 17 -3 15 -6z
m246 -8 c13 -17 13 -17 -6 -3 -11 8 -22 16 -24 17 -2 2 0 3 6 3 6 0 17 -8 24
-17z m-2811 -6 c0 -1 -28 -29 -62 -62 l-63 -60 60 63 c55 58 65 67 65 59z
m817 -22 c3 -9 3 -19 -1 -22 -7 -7 -36 16 -36 28 0 15 30 10 37 -6z m1064 -51
c-16 -33 -30 -56 -31 -52 0 11 53 118 58 114 2 -2 -10 -30 -27 -62z m-1286 46
c3 -5 2 -10 -4 -10 -5 0 -13 5 -16 10 -3 6 -2 10 4 10 5 0 13 -4 16 -10z
m1401 -17 c-4 -10 -7 -20 -7 -23 -1 -10 -22 -30 -31 -30 -5 0 1 18 13 40 22
39 38 48 25 13z m-2146 13 c0 -2 -8 -10 -17 -17 -16 -13 -17 -12 -4 4 13 16
21 21 21 13z m121 -47 c-23 -24 -41 -41 -41 -37 0 11 72 89 77 84 2 -2 -14
-23 -36 -47z m-281 26 c7 -8 8 -15 2 -15 -5 0 -15 7 -22 15 -7 8 -8 15 -2 15
5 0 15 -7 22 -15z m800 0 c10 -12 10 -15 -4 -15 -9 0 -16 7 -16 15 0 8 2 15 4
15 2 0 9 -7 16 -15z m-90 -10 c0 -8 -4 -15 -9 -15 -13 0 -22 16 -14 24 11 11
23 6 23 -9z m402 -2 c15 -17 58 -97 58 -107 0 -3 -7 -3 -15 1 -9 3 -29 32 -45
64 -29 58 -28 76 2 42z m648 -143 c3 -225 1 -280 -8 -280 -10 0 -16 415 -7
431 4 6 8 9 10 7 2 -2 4 -73 5 -158z m1232 84 c2 2 17 -13 33 -33 l30 -35 -37
28 c-20 15 -53 48 -73 74 l-37 47 40 -41 c23 -23 42 -41 44 -40z m-2988 29 c4
-9 0 -23 -9 -33 -21 -23 -19 -36 3 -19 13 11 13 8 -3 -11 -11 -14 -20 -26 -21
-28 0 -1 -2 25 -3 58 -1 48 1 59 13 54 8 -3 17 -13 20 -21z m2246 22 c0 -8
-61 -115 -65 -115 -7 0 27 75 37 81 5 3 9 9 9 13 -3 18 0 26 9 26 6 0 10 -2
10 -5z m183 -6 c-8 -8 -16 -8 -30 0 -16 9 -14 10 12 11 21 0 26 -3 18 -11z
m-1853 -3 c0 -3 -4 -8 -10 -11 -5 -3 -10 -1 -10 4 0 6 5 11 10 11 6 0 10 -2
10 -4z m27 -28 c-3 -7 -5 -2 -5 12 0 14 2 19 5 13 2 -7 2 -19 0 -25z m1948 22
c3 -5 -1 -10 -9 -10 -9 0 -16 5 -16 10 0 6 4 10 9 10 6 0 13 -4 16 -10z m538
-68 c31 -37 73 -84 93 -106 19 -21 33 -40 31 -42 -2 -3 -28 22 -58 53 -30 32
-75 79 -101 105 -51 51 -55 58 -35 57 6 0 38 -30 70 -67z m-2451 33 c3 -14 1
-25 -3 -25 -5 0 -9 11 -9 25 0 14 2 25 4 25 2 0 6 -11 8 -25z m1377 -32 c12
-32 33 -71 45 -87 23 -28 24 -28 31 -7 7 23 25 19 25 -5 0 -8 -5 -12 -10 -9
-7 4 -9 -3 -5 -22 6 -28 6 -28 -28 10 -58 63 -111 177 -83 177 2 0 13 -26 25
-57z m-1679 38 c0 -6 -10 -8 -21 -6 -33 6 -36 15 -6 15 15 0 27 -4 27 -9z
m203 2 c-18 -2 -48 -2 -65 0 -18 2 -4 4 32 4 36 0 50 -2 33 -4z m1708 -16
c-10 -9 -11 -8 -5 6 3 10 9 15 12 12 3 -3 0 -11 -7 -18z m1086 -9 c-3 -7 -5
-2 -5 12 0 14 2 19 5 13 2 -7 2 -19 0 -25z m73 22 c0 -5 -2 -10 -4 -10 -3 0
-8 5 -11 10 -3 6 -1 10 4 10 6 0 11 -4 11 -10z m-3345 -90 c-49 -49 -92 -90
-94 -90 -9 0 164 177 174 179 5 0 -31 -39 -80 -89z m2235 70 c-6 -11 -13 -20
-16 -20 -2 0 0 9 6 20 6 11 13 20 16 20 2 0 0 -9 -6 -20z m44 -15 c3 -8 1 -15
-3 -15 -5 0 -11 7 -15 15 -3 8 -1 15 3 15 5 0 11 -7 15 -15z m139 8 c-7 -2
-21 -2 -30 0 -10 3 -4 5 12 5 17 0 24 -2 18 -5z m-383 -34 c-7 -11 -14 -18
-17 -15 -3 3 0 12 7 21 18 21 23 19 10 -6z m-929 -52 c-39 -53 -61 -75 -61
-62 0 18 90 129 98 121 2 -3 -15 -29 -37 -59z m1103 48 c-4 -8 -11 -15 -16
-15 -6 0 -5 6 2 15 7 8 14 15 16 15 2 0 1 -7 -2 -15z m-1210 -134 c-5 -6 -51
43 -92 99 -24 31 -14 23 31 -25 36 -38 64 -72 61 -74z m-884 119 c0 -5 -5 -10
-11 -10 -5 0 -7 5 -4 10 3 6 8 10 11 10 2 0 4 -4 4 -10z m553 3 c-7 -2 -21 -2
-30 0 -10 3 -4 5 12 5 17 0 24 -2 18 -5z m37 -8 c0 -8 -4 -15 -10 -15 -5 0 -7
7 -4 15 4 8 8 15 10 15 2 0 4 -7 4 -15z m1653 8 c-7 -2 -21 -2 -30 0 -10 3 -4
5 12 5 17 0 24 -2 18 -5z m275 0 c-21 -2 -55 -2 -75 0 -21 2 -4 4 37 4 41 0
58 -2 38 -4z m-2170 -10 c-10 -2 -26 -2 -35 0 -10 3 -2 5 17 5 19 0 27 -2 18
-5z m2282 -1 c0 -14 -11 -21 -26 -15 -21 8 -17 23 6 23 11 0 20 -4 20 -8z
m-2003 -8 c-3 -3 -12 -4 -19 -1 -8 3 -5 6 6 6 11 1 17 -2 13 -5z m2293 -19
c13 -14 21 -25 18 -25 -2 0 -15 11 -28 25 -13 14 -21 25 -18 25 2 0 15 -11 28
-25z m-2940 12 c0 -1 -66 -67 -147 -147 l-148 -145 145 148 c134 137 150 152
150 144z m-213 -29 c-3 -8 -6 -5 -6 6 -1 11 2 17 5 13 3 -3 4 -12 1 -19z
m3043 6 c0 -2 -24 -3 -52 -3 -52 2 -53 2 -13 8 37 6 65 4 65 -5z m300 -14 c6
-11 9 -20 8 -20 -2 0 -11 9 -21 20 -9 11 -13 20 -7 20 5 0 14 -9 20 -20z
m-3340 -23 c0 -2 -17 -19 -37 -38 l-38 -34 34 38 c33 34 41 42 41 34z m3384
-64 c22 -25 47 -56 54 -67 13 -20 -11 5 -68 71 -16 17 -41 33 -57 36 l-28 4
29 2 c22 1 37 -9 70 -46z m-142 -28 c10 -18 8 -18 -14 3 -24 22 -29 22 -259
22 -169 0 -230 -3 -219 -11 11 -8 9 -9 -10 -2 -14 4 -154 7 -312 5 -281 -2
-317 2 -268 28 12 6 20 7 20 1 0 -6 193 -9 505 -8 441 2 504 4 500 17 -8 20
44 -30 57 -55z m13 -62 c112 -124 116 -135 9 -32 -54 53 -106 99 -114 102 -9
3 -5 6 10 6 19 1 42 -17 95 -76z m-885 57 c0 -5 -4 -10 -10 -10 -5 0 -10 5
-10 10 0 6 5 10 10 10 6 0 10 -4 10 -10z m638 -141 c-10 -7 -14 8 -16 63 -2
50 1 74 10 79 10 7 14 -8 16 -63 2 -50 -1 -74 -10 -79z m435 56 c18 5 19 4 7
-4 -25 -18 -35 -13 -80 42 l-42 52 47 -48 c36 -37 52 -46 68 -42z m-626 -33
c-2 -20 -4 -3 -4 38 0 41 2 58 4 38 2 -21 2 -55 0 -76z m-910 62 c-3 -3 -12
-4 -19 -1 -8 3 -5 6 6 6 11 1 17 -2 13 -5z m0 -50 c-3 -3 -12 -4 -19 -1 -8 3
-5 6 6 6 11 1 17 -2 13 -5z m1473 -39 c19 -19 32 -35 29 -35 -3 0 -20 16 -39
35 -19 19 -32 35 -29 35 3 0 20 -16 39 -35z"/>
<path d="M1645 3421 c-3 -5 -1 -12 5 -16 5 -3 10 1 10 9 0 18 -6 21 -15 7z"/>
<path d="M1148 2859 l-28 -29 27 -55 c15 -30 32 -55 38 -55 15 0 55 43 55 58
0 6 -5 23 -12 37 -8 19 -14 22 -20 13 -6 -9 -7 -6 -4 8 4 13 0 27 -11 37 -17
15 -20 14 -45 -14z"/>
<path d="M2215 2581 c-34 -21 -144 -131 -131 -131 5 0 40 29 77 65 38 36 78
65 89 65 10 0 22 5 25 10 10 17 -28 11 -60 -9z"/>
<path d="M570 2133 c0 -5 15 -17 33 -29 17 -12 62 -46 98 -77 68 -58 79 -65
79 -46 0 12 -36 43 -128 111 -63 47 -82 56 -82 41z"/>
<path d="M2710 2460 c-9 -6 -10 -10 -3 -10 6 0 15 5 18 10 8 12 4 12 -15 0z"/>
<path d="M925 1211 c-3 -6 -2 -11 2 -11 5 0 17 -19 27 -42 10 -24 25 -56 32
-72 8 -16 14 -36 14 -45 0 -9 7 -27 16 -40 l16 -23 29 43 c32 49 26 69 -19 61
-25 -4 -25 -3 -9 10 17 13 16 15 -11 41 -16 15 -35 27 -42 25 -8 -2 -16 9 -19
26 -6 31 -25 44 -36 27z m128 -166 c8 -18 -11 -31 -25 -17 -11 11 -3 32 12 32
4 0 10 -7 13 -15z"/>
<path d="M855 1074 c-28 -25 -45 -44 -39 -42 15 4 97 78 92 83 -2 2 -26 -17
-53 -41z"/>
<path d="M2535 1050 c-4 -6 1 -23 11 -37 16 -25 17 -26 30 -8 18 25 18 41 -2
49 -22 9 -32 7 -39 -4z"/>
<path d="M1087 1014 c-21 -43 -21 -53 -1 -104 20 -49 36 -51 104 -8 l52 32
-22 18 c-21 17 -24 17 -41 2 -10 -9 -23 -13 -30 -8 -9 5 -6 10 9 15 29 11 27
18 -17 56 l-38 32 -16 -35z m39 -21 c-10 -10 -19 5 -10 18 6 11 8 11 12 0 2
-7 1 -15 -2 -18z m34 -13 c0 -5 -4 -10 -10 -10 -5 0 -10 5 -10 10 0 6 5 10 10
10 6 0 10 -4 10 -10z m0 -54 c0 -11 -19 -15 -25 -6 -3 5 1 10 9 10 9 0 16 -2
16 -4z"/>
<path d="M769 1003 c-13 -16 -12 -17 4 -4 9 7 17 15 17 17 0 8 -8 3 -21 -13z"/>
<path d="M589 881 c-39 -19 -110 -73 -105 -79 5 -4 146 86 146 93 0 7 0 7 -41
-14z"/>
<path d="M2800 1464 c-21 -55 -18 -69 15 -68 18 0 35 -7 42 -17 11 -14 19 -15
53 -7 22 6 40 13 40 17 0 6 -89 72 -128 95 -8 5 -16 -2 -22 -20z m25 -44 c3
-5 1 -10 -4 -10 -6 0 -11 5 -11 10 0 6 2 10 4 10 3 0 8 -4 11 -10z"/>
<path d="M181 1364 c0 -11 3 -14 6 -6 3 7 2 16 -1 19 -3 4 -6 -2 -5 -13z"/>
<path d="M3200 525 c13 -14 26 -25 28 -25 3 0 -5 11 -18 25 -13 14 -26 25 -28
25 -3 0 5 -11 18 -25z"/>
<path d="M3593 3093 c15 -2 39 -2 55 0 15 2 2 4 -28 4 -30 0 -43 -2 -27 -4z"/>
<path d="M3489 3069 c0 -13 -1 -50 -2 -82 -1 -32 0 -62 3 -67 3 -5 34 -9 70
-10 119 -3 110 -8 110 61 l0 60 -85 -2 c-47 -1 -88 1 -92 5 -3 3 34 6 83 6 83
0 90 2 91 20 2 18 -4 20 -56 20 -32 0 -73 3 -90 6 -28 6 -31 4 -32 -17z m124
-16 c-7 -2 -21 -2 -30 0 -10 3 -4 5 12 5 17 0 24 -2 18 -5z"/>
<path d="M1780 693 c0 -3 7 -15 17 -25 15 -17 15 -24 -1 -106 -14 -71 -22 -91
-44 -108 -22 -18 -27 -32 -33 -95 -4 -41 -8 -138 -8 -216 -1 -121 1 -143 14
-143 13 0 15 26 16 168 1 118 4 154 10 122 4 -25 8 -93 8 -152 1 -65 5 -108
11 -108 13 0 13 240 0 274 -7 20 -6 26 8 29 16 4 16 5 0 6 -15 1 -17 8 -11 49
5 41 53 124 53 92 0 -9 5 -9 18 1 15 13 16 12 3 -3 -7 -10 -17 -15 -22 -13 -4
3 -8 -3 -9 -12 0 -10 -3 -116 -6 -235 -6 -217 -6 -218 15 -218 21 0 21 3 21
213 0 234 -4 217 73 309 20 25 37 52 37 60 0 21 -48 62 -107 92 -56 28 -63 30
-63 19z m127 -110 c1 -21 0 -22 -4 -5 -5 26 -16 28 -33 7 -29 -35 -48 -11 -34
43 l6 22 32 -19 c22 -14 31 -28 33 -48z m-7 -38 c0 -1 -10 -10 -21 -21 -22
-19 -22 -19 -11 2 6 12 8 24 4 28 -3 4 1 4 11 0 9 -3 17 -7 17 -9z m-73 -37
c-3 -7 -5 -2 -5 12 0 14 2 19 5 13 2 -7 2 -19 0 -25z"/>
<path d="M18 583 c-12 -3 -18 -14 -18 -34 0 -25 4 -29 29 -29 55 0 151 13 151
20 0 5 -8 7 -17 5 -49 -10 -133 -12 -133 -4 0 5 13 9 29 9 62 0 121 13 121 26
0 11 -17 14 -72 13 -40 -1 -81 -3 -90 -6z"/>
<path d="M759 209 c-6 -3 -91 -4 -189 -1 l-179 5 -103 -99 c-57 -54 -107 -102
-112 -106 -6 -4 121 -8 281 -8 l292 0 4 37 4 38 1 -37 2 -38 61 0 60 0 -3 105
c-2 58 0 106 5 108 4 1 -20 2 -54 2 -33 0 -65 -3 -70 -6z m-232 -66 c-3 -10
-5 -2 -5 17 0 19 2 27 5 18 2 -10 2 -26 0 -35z"/>
<path d="M1030 209 c-14 -6 -46 -9 -72 -6 l-48 4 0 -103 0 -104 59 0 60 0 4
33 4 32 1 -32 2 -33 175 0 175 0 0 83 c0 76 -2 86 -24 106 -24 23 -28 23 -171
16 -105 -5 -145 -4 -141 4 8 13 9 13 -24 0z m20 -29 c0 -5 -5 -10 -11 -10 -5
0 -7 5 -4 10 3 6 8 10 11 10 2 0 4 -4 4 -10z m-13 -97 c-3 -10 -5 -2 -5 17 0
19 2 27 5 18 2 -10 2 -26 0 -35z"/>
<path d="M200 104 c-89 -89 -101 -105 -78 -102 18 2 60 36 130 104 92 89 100
100 78 102 -20 2 -48 -20 -130 -104z"/>
<path d="M1760 10 c0 -5 5 -10 10 -10 6 0 10 5 10 10 0 6 -4 10 -10 10 -5 0
-10 -4 -10 -10z"/>
</g>
</svg>
